<?xml version="1.0" encoding="utf-8"?>
<!-- Generator: Adobe Illustrator 27.5.0, SVG Export Plug-In . SVG Version: 6.00 Build 0)  -->
<svg version="1.1" xmlns="http://www.w3.org/2000/svg" xmlns:xlink="http://www.w3.org/1999/xlink" x="0px" y="0px"
	 viewBox="0 0 750 500" style="enable-background:new 0 0 750 500;" xml:space="preserve">
<g id="BACKGROUND">
	<rect style="fill:#CEEAED;" width="750" height="500"/>
</g>
<g id="OBJECTS">
	<ellipse style="fill:#BFE0E2;" cx="375" cy="250" rx="344.278" ry="212.819"/>
	<g>
		<g>
			<path style="fill:#F7EFE7;" d="M98.572,263.211c3.808,4.125,9.815,6.346,15.255,4.959c5.44-1.387,9.82-6.709,9.458-12.311
				c-0.363-5.602-6.02-10.486-11.532-9.423c0.818-5.066-2.213-10.498-6.953-12.462c-4.74-1.964-10.725-0.267-13.729,3.893
				c-0.83-4.241-4.732-7.681-9.044-7.972c-4.311-0.292-8.642,2.591-10.036,6.681c-3.917-2.984-8.271-5.639-13.13-6.434
				c-4.86-0.795-10.318,0.604-13.328,4.502c-3.009,3.898-2.555,10.387,1.6,13.029c-5.207,1.769-9.659,6.063-10.935,11.411
				c-1.276,5.349,1.061,11.547,5.896,14.167s11.756,0.829,14.197-4.098c2.834,5.725,10.248,8.697,16.252,6.515
				c4.206-1.529,8.156-9.239,8.156-9.239S92.377,276.385,98.572,263.211z"/>
			<path style="fill:#F7EFE7;" d="M556.304,436.503c3.808,4.125,9.815,6.346,15.255,4.959c5.44-1.387,9.82-6.709,9.458-12.311
				c-0.363-5.602-6.02-10.486-11.532-9.423c0.818-5.065-2.213-10.498-6.953-12.462c-4.74-1.964-10.725-0.267-13.729,3.893
				c-0.83-4.241-4.733-7.681-9.044-7.973c-4.311-0.292-8.642,2.591-10.036,6.681c-3.917-2.984-8.271-5.639-13.13-6.434
				c-4.859-0.795-10.318,0.604-13.328,4.502c-3.009,3.898-2.555,10.387,1.6,13.029c-5.207,1.769-9.659,6.063-10.935,11.411
				c-1.275,5.349,1.061,11.546,5.896,14.167c4.835,2.62,11.756,0.829,14.197-4.098c2.835,5.725,10.247,8.697,16.252,6.515
				c4.206-1.529,8.156-9.239,8.156-9.239S550.108,449.678,556.304,436.503z"/>
			<path style="fill:#F7EFE7;" d="M542.122,86.25c3.808,4.125,9.816,6.346,15.255,4.959c5.44-1.387,9.82-6.709,9.458-12.311
				c-0.363-5.602-6.02-10.486-11.532-9.423c0.818-5.066-2.213-10.498-6.953-12.462c-4.74-1.964-10.725-0.267-13.729,3.893
				c-0.83-4.241-4.733-7.681-9.044-7.972c-4.311-0.292-8.642,2.591-10.036,6.681c-3.917-2.984-8.271-5.639-13.131-6.434
				s-10.318,0.604-13.328,4.502c-3.009,3.898-2.555,10.387,1.6,13.029c-5.207,1.769-9.659,6.063-10.935,11.412
				c-1.276,5.349,1.061,11.547,5.896,14.167c4.835,2.62,11.756,0.829,14.197-4.098c2.835,5.725,10.247,8.697,16.252,6.515
				c4.206-1.528,8.156-9.239,8.156-9.239S535.927,99.424,542.122,86.25z"/>
		</g>
		<g>
			<g>
				<g>
					<path style="fill:#F7EFE7;" d="M257.024,63.237l10.275-12.206l-3.336,16.172l11.866,3.164l-12.398,3.832
						c0,0-0.567,11.422-1.006,11.57c-0.439,0.148-6.697-12.407-6.697-12.407s-10.051,4.316-10.377,4.228
						c-0.326-0.089,5.901-9.231,5.901-9.231s-6.168-11.204-5.509-10.531C246.403,58.501,257.024,63.237,257.024,63.237z"/>
					<path style="fill:#F7EFE7;" d="M556.376,242.781l17.679-8.1l-12.098,16.083l11.429,9.666l-15.658-2.234
						c0,0-6.573,12.292-7.134,12.226c-0.561-0.066-0.918-17.16-0.918-17.16s-12.606,2.113-13.637-0.746
						c-0.14-0.387,11.31-7.099,11.31-7.099s-0.962-15.559-0.586-14.474C547.139,232.029,556.376,242.781,556.376,242.781z"/>
					<path style="fill:#95C9D1;" d="M502.033,140.373l11.164-12.155l-4.171,16.564l12.122,3.8l-12.984,3.406
						c0,0-1.096,11.779-1.557,11.912c-0.461,0.133-6.366-13.121-6.366-13.121s-10.581,4.011-10.913,3.905
						c-0.333-0.106,6.511-9.276,6.511-9.276s-5.873-11.855-5.222-11.13C491.269,135.003,502.033,140.373,502.033,140.373z"/>
					<path style="fill:#2682BF;" d="M224.913,267.32l6.174-7.335l-2.005,9.718l7.131,1.901l-7.45,2.303c0,0-0.34,6.864-0.604,6.952
						c-0.264,0.089-4.024-7.456-4.024-7.456s-6.04,2.594-6.236,2.54c-0.196-0.053,3.546-5.547,3.546-5.547s-3.706-6.733-3.31-6.328
						C218.53,264.473,224.913,267.32,224.913,267.32z"/>
					<path style="fill:#F7EFE7;" d="M283.315,398.534l-6.657-14.499l13.204,9.915l7.923-9.383l-1.822,12.848
						c0,0,10.089,5.385,10.035,5.845c-0.054,0.46-14.078,0.765-14.078,0.765s-0.384,10.932-0.603,11.189
						c-0.219,0.257-5.832-9.275-5.832-9.275s-12.765,0.799-11.875,0.49C274.5,406.12,283.315,398.534,283.315,398.534z"/>
					<path style="fill:#95C9D1;" d="M140.953,209.861l5.076-7.105l-1.118,8.968l6.611,1.211l-6.598,2.629
						c0,0,0.186,6.256-0.047,6.356c-0.233,0.1-4.192-6.478-4.192-6.478s-5.296,2.791-5.478,2.757s2.819-5.292,2.819-5.292
						s-3.851-5.845-3.462-5.507C134.953,207.738,140.953,209.861,140.953,209.861z"/>
					<path style="fill:#2682BF;" d="M560.382,206.542l-3.643-7.935l7.226,5.427l4.336-5.136l-0.997,7.032
						c0,0,5.522,2.947,5.492,3.199c-0.029,0.252-7.705,0.419-7.705,0.419s-0.21,5.983-0.33,6.124
						c-0.12,0.141-3.192-5.076-3.192-5.076s-6.986,0.438-6.499,0.268C555.558,210.694,560.382,206.542,560.382,206.542z"/>
					<path style="fill:#F7EFE7;" d="M239.684,315.063l-3.643-7.935l7.226,5.427l4.336-5.135l-0.997,7.032
						c0,0,5.522,2.947,5.492,3.199c-0.029,0.252-7.705,0.419-7.705,0.419s-0.21,5.983-0.33,6.124
						c-0.12,0.141-3.192-5.076-3.192-5.076s-6.986,0.438-6.499,0.268C234.86,319.214,239.684,315.063,239.684,315.063z"/>
				</g>
				<g>
					<path style="fill:#95C9D1;" d="M283.006,224.843c0,0-6.529-12.83-2.106-18.711c4.423-5.882,6.951,9.356,6.951,9.356
						s6.507-10.973,11.164-5.97C305.544,216.533,283.006,224.843,283.006,224.843z"/>
					<path style="fill:#95C9D1;" d="M282.728,226.115c0,0-6.797-13.355-2.192-19.478c4.604-6.123,7.236,9.739,7.236,9.739
						s6.773-11.422,11.621-6.214C306.19,217.465,282.728,226.115,282.728,226.115z"/>
					<path style="fill:#F66B3E;" d="M683.39,230.805c0,0-15.397-9.291-14.592-18.449c0.806-9.158,13.549,5.329,13.549,5.329
						s-0.348-15.932,7.894-13.703C701.799,207.108,683.39,230.805,683.39,230.805z"/>
					<path style="fill:#F66B3E;" d="M179.333,260.614c0,0-14.387,0.497-17.849-5.997c-3.462-6.494,11.416-2.347,11.416-2.347
						s-7.196-10.534-0.693-12.64C181.324,236.676,179.333,260.614,179.333,260.614z"/>
				</g>
			</g>
			<g>
				<path style="fill:#F66B3E;" d="M77.702,313.841c-1.082-0.158-2.301,0.098-2.987,0.95c-0.858,1.065-0.497,2.846,0.662,3.572
					c1.159,0.726,2.843,0.34,3.651-0.764c0.808-1.104,0.708-2.748-0.149-3.814L77.702,313.841z"/>
				<path style="fill:#F7EFE7;" d="M334.321,342.354c-1.082-0.158-2.301,0.098-2.987,0.95c-0.858,1.065-0.497,2.846,0.662,3.572
					c1.159,0.726,2.843,0.34,3.651-0.764c0.808-1.104,0.708-2.748-0.149-3.814L334.321,342.354z"/>
				<path style="fill:#F7EFE7;" d="M204.802,227.457c-1.082-0.158-2.301,0.098-2.987,0.95c-0.858,1.065-0.497,2.846,0.662,3.572
					c1.159,0.726,2.843,0.34,3.651-0.764c0.808-1.104,0.708-2.748-0.149-3.814L204.802,227.457z"/>
				<path style="opacity:0.5;fill:#0087BC;" d="M227.843,91.931c-1.082-0.158-2.301,0.098-2.987,0.95
					c-0.858,1.065-0.497,2.846,0.662,3.572c1.159,0.726,2.843,0.34,3.651-0.764c0.808-1.104,0.708-2.748-0.149-3.814L227.843,91.931
					z"/>
				<path style="fill:#95C9D1;" d="M631.923,219.617c-1.939-0.283-4.123,0.176-5.353,1.702c-1.537,1.909-0.891,5.099,1.186,6.4
					s5.094,0.609,6.541-1.369c1.447-1.978,1.268-4.923-0.267-6.833L631.923,219.617z"/>
				<path style="fill:#F7EFE7;" d="M455.187,73.751c-1.082-0.158-2.301,0.098-2.988,0.95c-0.858,1.065-0.497,2.846,0.662,3.572
					c1.159,0.726,2.843,0.34,3.651-0.764c0.808-1.104,0.708-2.748-0.149-3.814L455.187,73.751z"/>
				<path style="fill:#F7EFE7;" d="M532.534,145.93c-1.082-0.158-2.301,0.098-2.987,0.95c-0.858,1.065-0.497,2.846,0.662,3.572
					c1.159,0.726,2.843,0.34,3.651-0.764c0.808-1.104,0.708-2.748-0.149-3.814L532.534,145.93z"/>
				<path style="fill:#F7EFE7;" d="M660.503,179.623c-1.082-0.158-2.301,0.098-2.987,0.95c-0.858,1.065-0.497,2.846,0.662,3.572
					c1.159,0.726,2.843,0.34,3.651-0.764c0.808-1.104,0.708-2.748-0.149-3.814L660.503,179.623z"/>
				<path style="fill:#F7EFE7;" d="M555.837,297.816c-1.082-0.158-2.301,0.098-2.987,0.95c-0.858,1.065-0.497,2.846,0.662,3.572
					c1.159,0.726,2.843,0.34,3.651-0.764c0.808-1.104,0.708-2.748-0.149-3.814L555.837,297.816z"/>
			</g>
		</g>
	</g>
	<g>
		<g>
			<path style="fill:#105D89;" d="M156.579,330.125c3.266-1.162,7.06-0.457,9.884,1.554c2.824,2.011,4.693,5.218,5.376,8.617
				c0.918,4.567-0.286,9.515-3.198,13.151c-2.912,3.635-7.479,5.889-12.136,5.99c-0.912,0.02-1.946,0.009-2.572,0.672
				c-0.645,0.683-0.548,1.773-0.277,2.672c1.184,3.923,4.853,6.764,8.828,7.754c3.976,0.991,8.201,0.359,12.096-0.91
				c3.663-1.193,7.287-3.065,9.502-6.217c2.697-3.837,2.859-8.846,2.923-13.536c0.08-5.855,0.114-11.937-2.335-17.256
				c-2.97-6.451-9.661-11.022-16.75-11.444L156.579,330.125z"/>
			<g>
				<path style="fill:#2682BF;" d="M209.876,303.723c-0.386-1.601-1.106-3.077-2.075-4.34c-1.26-1.621-2.941-2.908-4.894-3.691
					c-10.583-4.243-33.35-12.974-40.67-12.703c-9.636,0.349-124.794,107.993-92.089,139.324c10.424,9.986,21.82,9.805,32.51,4.93
					c22.827-10.417,42.424-42.297,42.424-42.297l14.951,4.568c0,0-15.482,67.154,28.32,70.906
					C246.271,465.374,217.097,333.225,209.876,303.723z M159.065,359.368c-5.829-3.035-9.15-10.443-7.109-16.687
					c3.988-12.208,24.666-16.101,29.828-2.835C186.894,352.946,171.119,365.653,159.065,359.368z"/>
				<g>
					<path style="fill:#FFFFFF;" d="M182.95,405.255c-2.751,3.414-4.214,7.708-4.969,12.027c-0.959,5.487-0.796,11.37,1.759,16.319
						c2.555,4.949,7.881,8.705,13.431,8.236c8.991-0.761,12.995-10.363,13.449-18.218c0.399-6.912,0.447-19.995-7.372-23.143
						C193.646,398.221,186.639,400.677,182.95,405.255z"/>
					<path style="fill:#FFFFFF;" d="M184.051,382.939c-1.764,1.881-2.492,4.969-0.985,7.206c0.917,1.362,2.388,2.267,3.93,2.83
						c3.872,1.414,8.753,1.112,11.263-2.528c1.934-2.805,2.254-6.915-0.487-9.325C194.395,378.151,186.817,379.991,184.051,382.939z
						"/>
				</g>
			</g>
			<path style="opacity:0.72;" d="M207.795,299.386c0,0-43-14.239-51.151-8.143c-8.151,6.096-83.846,86.079-83.789,109.772
				c0.049,19.33,14.909,25.365,29.801,26.232c-10.687,4.877-22.08,5.058-32.507-4.933c-32.712-31.328,82.448-138.975,92.094-139.326
				c7.316-0.268,30.085,8.46,40.662,12.703C204.865,296.473,206.542,297.759,207.795,299.386z"/>
		</g>
		<g>
			<g>
				<path style="fill:#FFB93E;" d="M687.508,404.143c-9.447,7.996-22.055,11.523-34.42,11.981
					c-12.289,0.453-24.665-1.986-35.908-6.97c-4.626-2.045-9.059-4.52-13.215-7.403c-22.025-15.263-35.561-42.005-34.936-68.793
					c0.621-26.789,15.34-52.829,37.912-67.271c17.327-11.092,38.901-15.366,59.151-11.72c24.33,4.385,59.575,25.44,55.123,51.678
					c0.003,0.007,0.003,0.007,0.003,0.007c-0.917,5.384-3.493,10.978-8.181,16.697c-7.682,9.375-23.544,12.531-31.95,3.796
					c-7.31-7.595-7.11-21.275-16.237-26.558c-7.109-4.116-16.746-0.435-21.68,6.138c-4.935,6.573-6.2,15.151-6.691,23.35
					c-0.615,10.33,1.522,23.253,11.384,26.376c8.334,2.635,16.7-3.642,25.36-4.786c12.272-1.62,24.3,8.347,26.883,20.45
					C702.687,383.219,696.953,396.153,687.508,404.143z"/>
				<path style="fill:#FFFFFF;" d="M627.707,368.137c-4.562-1.774-8.331-5.79-13.215-6.116c-4.886-0.327-9.454,3.552-10.758,8.272
					c-1.303,4.72,0.251,9.914,3.233,13.799c2.982,3.885,7.239,6.608,11.678,8.677c7.829,3.65,16.966,5.461,25.137,2.66
					c7.185-2.463,17.262-12.659,12.902-21.065C651.845,365.033,635.687,371.24,627.707,368.137z"/>
				<path style="fill:#FFFFFF;" d="M668.688,378.145c-2.817,2.351-4.923,6.568-4.086,9.956c0.509,2.062,1.849,3.574,3.41,4.617
					c3.92,2.619,9.714,2.995,14.115-1.705c3.391-3.622,5.44-9.339,3.241-13.172C682.657,373.117,673.104,374.46,668.688,378.145z"/>
			</g>
			<path style="opacity:0.72;" d="M721.215,305.647c-0.166-0.584-9.167-31.525-45.543-41.693
				c-36.725-10.273-80.685,2.105-96.397,51.636c-12.914,40.728,24.276,80.658,37.905,93.565c-4.626-2.045-9.059-4.52-13.215-7.403
				c-22.025-15.263-35.561-42.005-34.936-68.793c0.621-26.789,15.34-52.829,37.912-67.271c17.327-11.092,38.901-15.366,59.151-11.72
				C690.422,258.354,725.667,279.409,721.215,305.647z"/>
		</g>
		<g>
			<path style="fill:#C64522;" d="M371.358,49.345c6.609,3.807,10.897,11.338,10.796,18.964c-0.1,7.626-4.585,15.042-11.291,18.674
				c8.694,1.906,18.279-0.931,24.535-7.262s8.977-15.95,6.965-24.62c-2.011-8.67-8.689-16.109-17.094-19.039L371.358,49.345z"/>
			<path style="fill:#C64522;" d="M392.96,128.867c6.609,3.807,10.897,11.338,10.796,18.964c-0.1,7.626-4.584,15.042-11.291,18.673
				c8.694,1.906,18.279-0.931,24.534-7.262c6.255-6.331,8.977-15.95,6.965-24.62c-2.011-8.67-8.689-16.109-17.094-19.039
				L392.96,128.867z"/>
			<g>
				<g>
					<path style="fill:#F66B3E;" d="M453.401,123.651c-3.963-11.896-12.521-18.203-21.981-21.38
						c-17.188-5.777-37.35-1.202-38.381-0.962c0.025-0.009,0.065-0.026,0.116-0.039c2.628-0.901,37.605-13.638,28.645-49.583
						c-2.495-9.999-9.291-17.408-18.215-22.516c-24.389-13.957-64.664-10.684-76.323,4.026
						c-15.924,20.099,16.257,152.798,23.908,154.252c18.35,3.472,36.382,4.348,52.224,2.397
						C441.496,185.168,466.902,164.146,453.401,123.651z M362.197,69.399c-1.543-12.457,15.127-24.486,25.208-14.898
						c9.962,9.473,1.289,27.269-11.987,26.714C368.996,80.946,362.983,75.774,362.197,69.399z M398.699,162.154
						c-6.422-0.269-12.435-5.441-13.221-11.816c-1.543-12.457,15.132-24.486,25.208-14.898
						C420.648,144.914,411.975,162.71,398.699,162.154z"/>
					<g>
						<path style="fill:#FFFFFF;" d="M344.038,110.411c-1.203,3.977-1.284,8.407-0.852,12.66c0.549,5.402,1.99,10.854,4.935,14.75
							c2.945,3.896,7.608,5.885,11.479,3.861c6.271-3.279,6.978-13.397,5.535-20.868c-1.27-6.574-4.182-18.816-10.494-19.525
							C350.119,100.782,345.651,105.079,344.038,110.411z"/>
						<path style="fill:#FFFFFF;" d="M339.803,89.24c-0.841,2.261-0.667,5.356,0.917,7.017c0.964,1.011,2.222,1.437,3.454,1.523
							c3.093,0.216,6.523-1.46,7.501-5.579c0.754-3.174,0.058-7.107-2.448-8.577C346.136,81.811,341.121,85.695,339.803,89.24z"/>
					</g>
				</g>
				<path style="opacity:0.72;" d="M393.156,101.27c-0.051,0.013-0.091,0.03-0.116,0.039c-0.025,0.009-0.041,0.012-0.041,0.012
					c41.597-24.865,10.586-72.149,10.586-72.149c8.925,5.108,15.72,12.517,18.215,22.516
					C430.761,87.633,395.784,100.369,393.156,101.27z"/>
				<path style="opacity:0.72;" d="M403.395,189.847c82.013-25.307,28.026-87.575,28.026-87.575
					c9.459,3.177,18.018,9.484,21.981,21.38C466.902,164.146,441.496,185.168,403.395,189.847z"/>
			</g>
		</g>
	</g>
	<g>
		<g>
			<path style="fill:#FFC569;" d="M180.262,111.197c19.102,29.515,5.068,58.626,5.068,58.626l6.801,9.719l-20.115,14.077
				l-6.801-9.719c0,0-11.141,1.117-24.627-3.695c-9.423-3.357-20.001-9.605-28.717-21.146c-7.945-10.519-8.591-21.47-6.3-31.054
				c5.182-21.645,25.561-35.908,47.673-33.362c1.005,0.117,2.017,0.268,3.023,0.455C165.071,96.735,173.832,101.266,180.262,111.197
				z"/>
			<g>
				<path style="fill:#F7EFE7;" d="M181.38,184.589l-2.297,1.607c-0.663,0.464-1.566,0.366-2.114-0.229
					c-0.105-0.113-10.567-11.449-21.781-22.286c-6.229-6.019-10.972-10.23-14.575-13.17c-6.554,2.141-12.235,0.433-14.336-2.372
					c-1.673-2.235-1.154-4.937,1.324-6.883c2.158-1.7,5.834-0.328,12.294,4.577c0.421,0.319,0.853,0.654,1.297,1.003
					c1.302-0.56,2.643-1.303,4.004-2.275l8.66-6.061c0.075-0.052,0.129-0.089,0.192-0.133c1.297-0.907,2.4-1.872,3.329-2.858
					c-0.177-0.536-0.343-1.057-0.499-1.562c-2.396-7.748-2.403-11.682-0.09-13.118c2.678-1.662,5.395-1.224,6.921,1.113
					c1.915,2.934,1.574,8.854-2.683,14.28c1.53,4.392,3.861,10.29,7.383,18.206c6.341,14.248,13.408,27.96,13.478,28.097
					C182.26,183.243,182.043,184.125,181.38,184.589z M143.971,149.095c3.665,3.067,7.957,6.964,12.817,11.641
					c9.523,9.163,18.632,18.831,21.574,21.983c-1.955-3.843-7.918-15.712-13.265-27.798c-2.73-6.169-4.922-11.537-6.547-16.031
					c-0.851,0.783-1.796,1.539-2.846,2.259l-8.643,6.048C146.031,147.932,144.994,148.564,143.971,149.095z M158.492,123.573
					c-0.14,0.168-0.925,1.512,1.27,8.779c2.156-3.665,2.234-7.128,1.243-8.645C160.791,123.377,160.219,122.502,158.492,123.573z
					 M129.563,143.815c-1.563,1.234-0.937,2.071-0.7,2.386c1.086,1.451,4.365,2.563,8.545,1.794
					C131.33,143.447,129.79,143.728,129.563,143.815z"/>
			</g>
			<path style="fill:#FFFFFF;" d="M125.682,141.067c-0.418-7.746,1.679-15.609,5.9-22.118c1.566-2.415,3.471-5.463,1.943-7.903
				c-1.307-2.087-4.316-2.18-6.716-1.63c-6.086,1.394-11.506,5.469-14.536,10.927c-3.03,5.459-3.622,12.214-1.587,18.116
				c0.888,2.575,2.367,5.102,4.751,6.418c2.384,1.317,5.799,1.001,7.347-1.239L125.682,141.067z"/>
			<path style="fill:#FFFFFF;" d="M145.066,104.356c-1.204-0.327-2.538-0.144-3.61,0.495c-1.072,0.639-1.867,1.726-2.152,2.941
				c-0.262,1.117-0.059,2.397,0.75,3.211c0.819,0.824,2.118,1.028,3.247,0.755c1.302-0.315,2.45-1.22,3.059-2.413
				c0.609-1.193,0.669-2.653,0.16-3.893L145.066,104.356z"/>
			<path style="opacity:0.72;" d="M180.262,111.197c19.102,29.515,5.068,58.626,5.068,58.626l6.801,9.719l-20.115,14.077
				l-6.801-9.719c0,0-11.141,1.117-24.627-3.695c22.529-21.885,18.905-64.914,15.679-85.108
				C165.071,96.735,173.832,101.266,180.262,111.197z"/>
			<path style="fill:#F66B3E;" d="M181.624,201.526c0.622-0.401,5.712,4.482,11.345,0.54c5.632-3.942,2.891-11.645,2.891-11.645
				L181.624,201.526z"/>
			<g>
				<defs>
					<path id="XMLID_3_" d="M166.287,189.817c0,0,4.638,8.162,5.909,8.443c1.271,0.281,24.343-16.158,24.507-17.151
						c0.164-0.993-4.35-8.364-5.909-8.443C189.235,172.587,166.287,189.817,166.287,189.817z"/>
				</defs>
				<use xlink:href="#XMLID_3_"  style="overflow:visible;fill:#1E659C;"/>
				<clipPath id="XMLID_00000040552204917878883440000007220783292650352768_">
					<use xlink:href="#XMLID_3_"  style="overflow:visible;"/>
				</clipPath>
				<path style="opacity:0.72;clip-path:url(#XMLID_00000040552204917878883440000007220783292650352768_);" d="M171.837,183.813
					c-1.267-1.64-3.921,0.203-2.647,1.852c2.47,3.196,4.849,6.456,7.139,9.783c1.179,1.713,3.827-0.138,2.647-1.852
					C176.686,190.268,174.307,187.008,171.837,183.813z"/>
				<path style="opacity:0.72;clip-path:url(#XMLID_00000040552204917878883440000007220783292650352768_);" d="M178.457,178.021
					c-1.236-1.667-3.887,0.178-2.647,1.852c3.17,4.277,6.017,8.744,8.554,13.424c0.989,1.824,3.628-0.043,2.647-1.852
					C184.474,186.765,181.628,182.298,178.457,178.021z"/>
				<path style="opacity:0.72;clip-path:url(#XMLID_00000040552204917878883440000007220783292650352768_);" d="M186.583,174.618
					c-1.455-1.479-3.509,1.018-2.06,2.49c2.829,2.874,5.068,6.174,6.712,9.856c0.844,1.889,3.893,0.817,3.045-1.083
					C192.387,181.642,189.838,177.926,186.583,174.618z"/>
			</g>
			<g>
				<defs>
					<path id="XMLID_4_" d="M174.281,196.213c0,0,3.755,6.607,4.783,6.835c1.028,0.228,19.705-13.08,19.838-13.883
						c0.133-0.803-3.521-6.771-4.783-6.835C192.858,182.266,174.281,196.213,174.281,196.213z"/>
				</defs>
				<use xlink:href="#XMLID_4_"  style="overflow:visible;fill:#1E659C;"/>
				<clipPath id="XMLID_00000101791670051853825150000000118861297539406503_">
					<use xlink:href="#XMLID_4_"  style="overflow:visible;"/>
				</clipPath>
				<path style="opacity:0.72;clip-path:url(#XMLID_00000101791670051853825150000000118861297539406503_);" d="M181.336,190.579
					c-1.609-1.311-3.677,1.172-2.06,2.49c2.894,2.359,3.991,6.084,6.152,9.026c1.229,1.673,3.88-0.173,2.647-1.852
					C185.712,197.026,184.514,193.17,181.336,190.579z"/>
				<path style="opacity:0.72;clip-path:url(#XMLID_00000101791670051853825150000000118861297539406503_);" d="M187.929,185.208
					c-1.593-1.332-3.66,1.153-2.06,2.49c2.687,2.246,4.006,5.577,5.922,8.429c1.16,1.727,3.806-0.126,2.647-1.852
					C192.337,191.146,190.882,187.675,187.929,185.208z"/>
			</g>
			<g>
				<path style="fill:#2682BF;" d="M112.695,179.24c-0.607-1.038-2.24-1.635-3.299-0.865l-4.465,3.25
					c-1.051,0.765-1.569,2.095-0.865,3.299c0.607,1.038,2.24,1.635,3.298,0.865c1.489-1.083,2.977-2.166,4.465-3.25
					C112.881,181.773,113.399,180.443,112.695,179.24z"/>
				<path style="fill:#2682BF;" d="M97.797,153.761c-0.369-1.344-1.681-1.923-2.966-1.684c-1.749,0.326-3.499,0.651-5.248,0.977
					c-1.281,0.238-2.008,1.787-1.684,2.966c0.369,1.344,1.681,1.923,2.966,1.684c1.749-0.326,3.499-0.651,5.248-0.977
					C97.394,156.488,98.121,154.94,97.797,153.761z"/>
				<path style="fill:#2682BF;" d="M90.606,116.261c-1.218,0.133-2.437,0.265-3.655,0.398c-1.25,0.136-2.474,1.011-2.411,2.411
					c0.053,1.189,1.068,2.557,2.411,2.411c1.218-0.133,2.437-0.265,3.655-0.398c1.25-0.136,2.473-1.011,2.411-2.411
					C92.964,117.483,91.949,116.115,90.606,116.261z"/>
				<path style="fill:#2682BF;" d="M121.154,88.676c-0.784-1.084-1.479-2.33-1.878-3.439c-0.441-1.224-1.641-2.048-2.966-1.684
					c-1.183,0.325-2.127,1.735-1.684,2.966c0.589,1.635,1.344,3.182,2.364,4.591c0.762,1.053,2.097,1.568,3.299,0.865
					C121.33,91.366,121.922,89.737,121.154,88.676z"/>
				<path style="fill:#2682BF;" d="M171.593,74.576c-1.382-0.38-2.47,0.474-2.966,1.684c-0.712,1.74-0.993,3.665-0.829,5.537
					c0.114,1.297,1.027,2.411,2.411,2.411c1.216,0,2.525-1.106,2.411-2.411c-0.133-1.517,0.08-2.847,0.657-4.256
					C173.77,76.336,172.741,74.891,171.593,74.576z"/>
				<path style="fill:#2682BF;" d="M200.642,103.535c-0.991-0.991-2.406-0.836-3.41,0c-1.331,1.109-2.663,2.219-3.994,3.328
					c-1.001,0.834-0.862,2.548,0,3.41c0.991,0.991,2.406,0.836,3.409,0c1.331-1.109,2.663-2.219,3.994-3.328
					C201.643,106.111,201.504,104.397,200.642,103.535z"/>
			</g>
		</g>
		<g>
			<polygon style="fill:#F66B3E;" points="678.17,132.327 670.572,127.075 669.766,126.519 673.346,122.317 673.377,122.333 
				680.981,127.249 676.874,127.656 			"/>
			<polygon style="fill:#FFFFFF;" points="645.484,175.785 639.703,171.788 637.08,169.977 640.667,165.77 643.086,167.331 
				648.296,170.707 644.188,171.114 			"/>
			<path style="fill:#1E659C;" d="M621.633,191.375c-4.143-0.317-36.074-21.664-52.719-36.639c-2.579-2.31-4.793-4.479-6.475-6.387
				c-2.776-3.148-4.127-5.6-3.341-6.915c0,0,0.46-0.765,1.284-2.148c7.469-12.492,45.214-75.213,50.203-76.461
				c0.922-0.229,3.473,0.438,7.086,1.757c0.547,0.202,1.109,0.412,1.708,0.644c0.541,0.207,1.106,0.434,1.687,0.669
				c0.497,0.2,0.998,0.406,1.515,0.62c0.306,0.126,0.612,0.251,0.923,0.383c0.437,0.185,0.879,0.376,1.332,0.569
				c20.545,8.808,55.563,27.774,56.553,36.191c0.057,0.503,0.012,1.13-0.149,1.879c-2.672,1.143-4.084,4.192-3.622,9.037
				c-1.186,2.348-2.614,4.962-4.239,7.759c-0.881,1.531-1.813,3.11-2.805,4.742c-7.639,12.578-18.135,27.785-27.486,40.257
				c-1.144,1.53-2.277,3.022-3.384,4.457C630.842,183.297,623.558,191.519,621.633,191.375z"/>
			<path style="fill:#F66B3E;" d="M562.439,148.348c-2.776-3.148-4.127-5.6-3.341-6.915c0,0,0.46-0.765,1.284-2.148
				c7.469-12.492,45.214-75.213,50.203-76.461c0.922-0.229,3.473,0.438,7.086,1.757l-2.203,3.347l-4.426,6.709l-44.973,68.209
				L562.439,148.348z"/>
			<path style="fill:#F7EFE7;" d="M677.616,114.573c-7.406-3.701-68.239-39.959-68.25-41.288c-0.013-1.407,1.723-4.233,3.297-6.181
				c1.391-1.734,56.098,30.778,68.579,38.429C678.568,106.679,677.158,109.73,677.616,114.573z"/>
			<polygon style="fill:#FFB93E;" points="615.524,73.178 620.703,75.481 626.589,64.056 621.338,67.266 620.481,62.934 			"/>
			<polygon style="fill:#FFB93E;" points="659.712,100.233 664.402,103.153 668.902,93.981 664.475,95.953 663.465,91.955 			"/>
			<g>
				<path style="fill:#FFB93E;" d="M628.154,114.249c0,0,11.828-15.855,20.431-8.523c8.604,7.332-15.263,13.605-15.263,13.605
					s14.847,4.812,12.824,12.612c-2.023,7.8-18.176-7.553-18.316-6.263c-0.14,1.291,5.349,22.127-6.075,18.046
					c-11.424-4.081-1.706-21.635-1.706-21.635s-21.333,13.284-19.354,0.169c1.979-13.115,16.226-7.309,16.226-7.309
					s-12.568-9.427-2.186-16.537C625.116,91.304,628.154,114.249,628.154,114.249z"/>
				<path style="fill:#FFFFFF;" d="M625.109,115.503c-1.333,0.354-2.213,1.864-1.939,3.215c0.526,2.598,4.446,3.299,5.749,0.913
					C630.061,117.539,627.115,114.971,625.109,115.503z"/>
			</g>
			<path style="fill:#F7EFE7;" d="M588.063,131.248c0,0-4.631,6.232-4.321,7.135c0.31,0.904,44.676,31.954,46.476,30.428
				c1.8-1.525,5.095-4.876,4.628-6.534C634.379,160.621,590.329,131.381,588.063,131.248z"/>
			<path style="fill:#F7EFE7;" d="M580.36,141.949c0,0-4.631,6.232-4.321,7.135c0.31,0.904,44.676,31.954,46.476,30.428
				c1.8-1.525,5.095-4.876,4.628-6.534C626.675,171.321,582.626,142.081,580.36,141.949z"/>
			<path style="opacity:0.72;" d="M639.703,171.788c-8.861,11.509-16.145,19.731-18.07,19.587
				c-4.143-0.317-36.074-21.664-52.719-36.639c-2.579-2.31-4.793-4.479-6.475-6.387c-2.776-3.148-4.127-5.6-3.341-6.915
				c0,0,0.46-0.765,1.284-2.148c1.803,1.371,3.703,2.555,5.686,3.561c3.461,1.761,7.182,2.989,11.086,3.763
				c4.17,0.832,8.548,1.151,13.052,1.047c1.901-0.033,3.827-0.152,5.764-0.337c4.685-0.441,9.464-1.272,14.239-2.401
				c3.049-0.71,6.095-1.543,9.116-2.476c3.209-0.982,6.394-2.064,9.512-3.223c4.479-1.651,8.833-3.445,12.972-5.294
				c1.475-0.654,2.917-1.313,4.333-1.982c18.233-8.531,31.475-17.369,31.475-17.369c-1.186,2.348-2.614,4.962-4.239,7.759
				l7.604,4.917l-4.108,0.407l1.296,4.671l-7.597-5.252c-7.639,12.578-18.135,27.785-27.486,40.257l5.21,3.376l-4.108,0.407
				l1.296,4.671L639.703,171.788z"/>
		</g>
		<g>
			<path style="fill:#F7EFE7;" d="M288.263,119.154c1.051,1.064,4.662,41.492,5.828,65.53c0.009,0.184,0.019,0.368,0.023,0.545
				c-6.527,8.341-22.297,20.428-22.297,20.428c-15.878,1.603-34.685,2.452-36.102-0.34c-2.414-4.777-8.664-75.957-8.664-75.957
				S286.787,117.657,288.263,119.154z"/>
			<path style="fill:#F66B3E;" d="M294.641,184.537c-0.169,0.23-0.338,0.459-0.526,0.691c-6.527,8.341-22.297,20.428-22.297,20.428
				l0.173-18.665c2.725,2.642,18.92-1.471,22.101-2.308C294.449,184.592,294.641,184.537,294.641,184.537z"/>
		</g>
		<g>
			<path style="fill:#2682BF;" d="M504.077,390.551c-1.333-0.564-19.485-35.382-29.401-56.447c-0.076-0.161-0.152-0.322-0.222-0.479
				c2.758-9.868,12.398-26.498,12.398-26.498c13.607-7.295,30.111-14.996,32.408-13.022c3.922,3.381,35.786,64.724,35.786,64.724
				S505.949,391.345,504.077,390.551z"/>
			<path style="fill:#F7EFE7;" d="M474.238,334.437c0.066-0.268,0.133-0.535,0.215-0.812c2.758-9.868,12.398-26.498,12.398-26.498
				l6.735,16.755c-3.412-1.357-16.376,8.299-18.911,10.222C474.389,334.317,474.238,334.437,474.238,334.437z"/>
		</g>
		<g>
			<path style="fill:#F66B3E;" d="M388.579,336.145c0,0,9.411,3.576,10.893,4.763c1.481,1.188,50.116,96.069,49.555,98.78
				c-0.561,2.71-70.016,38.783-73.077,37.02c-3.062-1.764-6.869-4.239-6.869-4.239L388.579,336.145z"/>
			<path style="fill:#FFB93E;" d="M431.488,415.841c5.683,11.662,9.419,20.171,8.901,21.27c-0.764,1.605-12.274,8.813-25.862,16.346
				C414.527,453.457,427.794,429.812,431.488,415.841z"/>
			<path style="fill:#F7EFE7;" d="M388.581,336.143c1.891,0.769,28.181,49.514,42.584,79.026c0.111,0.226,0.221,0.451,0.323,0.671
				c-3.694,13.971-16.961,37.616-16.961,37.616c-19.046,10.558-42.169,21.746-45.449,19.008
				c-5.598-4.69-51.752-90.573-51.752-90.573S385.924,335.061,388.581,336.143z"/>
			<g>
				<path style="fill:#1E659C;" d="M318.443,370.41c0,0,5.136,14.504,7.026,14.945c1.891,0.442,5.731-1.701,5.72-3.149
					c-0.01-1.448-6.601-15.051-7.657-14.799C322.478,367.659,318.443,370.41,318.443,370.41z"/>
				<path style="fill:#2174A3;" d="M329.826,363.588c0,0,5.136,14.504,7.026,14.945c1.891,0.442,5.731-1.701,5.721-3.149
					c-0.011-1.448-6.601-15.051-7.657-14.799C333.86,360.837,329.826,363.588,329.826,363.588z"/>
				<path style="fill:#1E659C;" d="M341.209,356.766c0,0,5.136,14.503,7.026,14.945c1.891,0.442,5.731-1.701,5.72-3.149
					c-0.01-1.448-6.601-15.051-7.657-14.799C345.243,354.014,341.209,356.766,341.209,356.766z"/>
				<path style="fill:#2174A3;" d="M352.592,349.944c0,0,5.136,14.504,7.026,14.945c1.891,0.442,5.731-1.701,5.721-3.149
					c-0.01-1.448-6.601-15.051-7.657-14.799C356.626,347.192,352.592,349.944,352.592,349.944z"/>
				<path style="fill:#1E659C;" d="M363.974,343.122c0,0,5.136,14.503,7.026,14.945c1.891,0.442,5.731-1.701,5.721-3.149
					c-0.01-1.448-6.601-15.051-7.657-14.799C368.009,340.37,363.974,343.122,363.974,343.122z"/>
				<path style="fill:#2174A3;" d="M375.357,336.299c0,0,5.136,14.503,7.026,14.945c1.891,0.442,5.731-1.701,5.721-3.149
					c-0.01-1.448-6.601-15.051-7.657-14.799C379.391,333.548,375.357,336.299,375.357,336.299z"/>
			</g>
			<path style="fill:#1E659C;" d="M431.774,414.691c-0.089,0.379-0.177,0.758-0.287,1.15c-3.694,13.971-16.961,37.616-16.961,37.616
				l-9.83-23.496c4.839,1.846,22.931-12.029,26.468-14.791C431.563,414.863,431.774,414.691,431.774,414.691z"/>
			<g>
				<g>
					<path style="fill:#EADBCE;" d="M400.517,382.428c-0.178,0.29-0.447,0.529-0.785,0.67c-3.151,1.308-6.722,2.79-10.558,2.745
						c-0.242-0.003-0.487-0.013-0.734-0.032c-0.216,0.271-0.433,0.531-0.645,0.781c-3.054,3.593-6.124,5.977-9.385,7.286
						c-2.367,0.951-4.829,1.295-7.133,1.048c-5.749,6.235-11.434,9.134-16.914,8.623c-2.089,3.451-5.004,6.357-8.474,8.389
						c-0.8,0.469-1.827,0.2-2.296-0.599c-0.468-0.801-0.198-1.828,0.6-2.296c2.694-1.578,5.011-3.776,6.749-6.364
						c-2.303-1.005-4.334-2.851-4.921-5.519c-0.456-2.076,0.354-4.405,2.062-5.931c1.464-1.306,3.343-1.742,5.025-1.165
						c1.383,0.475,2.442,1.466,3.06,2.864c1.044,2.361,0.602,5.308-0.152,7.31c3.638-0.154,7.513-2.265,11.555-6.297
						c-0.5-0.223-0.982-0.481-1.443-0.773c-4.019-2.552-5.807-7.723-4.071-11.772c0.953-2.218,3.11-3.953,5.636-4.543
						c2.334-0.544,4.62-0.049,6.269,1.361c2.343,2.003,3.24,5.654,2.232,9.085c-0.457,1.559-1.223,2.965-2.133,4.258
						c1.035-0.122,2.083-0.385,3.1-0.793c2.582-1.037,5.075-2.937,7.605-5.799c-2.368-0.948-4.468-2.682-5.404-5.299
						c-0.8-2.235-0.296-4.967,1.291-6.973c1.384-1.749,3.326-2.623,5.328-2.399c3.813,0.428,6.116,4.461,5.875,7.959
						c-0.104,1.509-0.559,2.9-1.186,4.162c2.646-0.286,5.248-1.366,7.777-2.416c0.855-0.355,1.838,0.051,2.193,0.906
						C400.853,381.422,400.79,381.985,400.517,382.428z M386.95,382.161c0.805-1.241,1.455-2.657,1.557-4.138
						c0.131-1.906-1.082-4.19-2.902-4.394c-1.13-0.127-1.941,0.665-2.323,1.148c-0.866,1.095-1.175,2.608-0.762,3.76
						C383.204,380.449,385.03,381.633,386.95,382.161z M370.035,391.269c1.404-1.655,2.432-3.191,2.939-4.916
						c0.516-1.759,0.363-4.257-1.194-5.589c-0.828-0.708-2.041-0.942-3.326-0.642c-1.507,0.351-2.776,1.346-3.315,2.597
						c-1.087,2.535,0.163,5.951,2.786,7.617C368.564,390.741,369.275,391.053,370.035,391.269z M349.711,394.458
						c-0.386,0.627-0.552,1.36-0.415,1.98c0.35,1.587,1.755,2.702,3.292,3.29c0.055-0.121,0.109-0.244,0.162-0.367
						c0.753-1.747,0.896-3.835,0.347-5.076c-0.241-0.544-0.585-0.876-1.081-1.047c-0.72-0.248-1.375,0.204-1.701,0.495
						C350.078,393.944,349.875,394.191,349.711,394.458z"/>
				</g>
				<g>
					<path style="fill:#EADBCE;" d="M418.434,412.402c-0.178,0.29-0.447,0.529-0.785,0.67c-3.151,1.308-6.722,2.79-10.558,2.745
						c-0.242-0.003-0.487-0.014-0.734-0.032c-0.217,0.271-0.433,0.531-0.645,0.781c-3.054,3.595-6.125,5.978-9.386,7.287
						c-2.367,0.95-4.828,1.295-7.133,1.047c-5.749,6.235-11.434,9.134-16.914,8.623c-2.091,3.441-5.004,6.357-8.474,8.389
						c-0.8,0.469-1.827,0.2-2.296-0.599c-0.467-0.801-0.198-1.828,0.6-2.296c2.694-1.579,5.011-3.776,6.749-6.364
						c-2.303-1.005-4.334-2.851-4.921-5.519c-0.457-2.076,0.354-4.405,2.062-5.931c1.464-1.306,3.343-1.742,5.025-1.165
						c1.384,0.475,2.442,1.466,3.06,2.864c1.045,2.361,0.602,5.308-0.152,7.31c3.638-0.154,7.513-2.265,11.555-6.297
						c-0.5-0.223-0.982-0.481-1.442-0.773c-4.019-2.552-5.808-7.724-4.071-11.772c0.953-2.216,3.109-3.953,5.636-4.543
						c2.335-0.544,4.62-0.049,6.269,1.361c2.343,2.002,3.24,5.654,2.232,9.085c-0.457,1.559-1.224,2.961-2.133,4.259
						c1.035-0.122,2.082-0.385,3.099-0.794c2.583-1.037,5.076-2.936,7.605-5.798c-2.368-0.948-4.468-2.682-5.404-5.299
						c-0.799-2.234-0.293-4.975,1.291-6.973c1.385-1.749,3.327-2.625,5.327-2.399c3.813,0.428,6.116,4.461,5.875,7.959
						c-0.104,1.509-0.559,2.9-1.186,4.162c2.646-0.286,5.248-1.367,7.778-2.417c0.856-0.355,1.838,0.051,2.193,0.906
						C418.769,411.397,418.706,411.96,418.434,412.402z M404.866,412.136c0.819-1.252,1.454-2.658,1.557-4.138
						c0.131-1.906-1.082-4.189-2.902-4.394c-1.13-0.127-1.939,0.664-2.322,1.147c-0.872,1.102-1.176,2.608-0.763,3.761
						C401.12,410.424,402.946,411.607,404.866,412.136z M387.951,421.244c1.276-1.507,2.415-3.134,2.939-4.916
						c0.516-1.759,0.363-4.257-1.194-5.589c-0.828-0.708-2.041-0.942-3.326-0.642c-1.509,0.352-2.776,1.346-3.315,2.597
						c-1.087,2.535,0.163,5.952,2.786,7.617C386.481,420.716,387.191,421.028,387.951,421.244z M367.627,424.433
						c-0.386,0.627-0.552,1.36-0.415,1.98c0.35,1.587,1.755,2.702,3.292,3.29c0.055-0.121,0.109-0.244,0.162-0.367
						c0.753-1.747,0.896-3.835,0.347-5.076c-0.241-0.544-0.585-0.877-1.082-1.047c-0.72-0.248-1.375,0.204-1.7,0.494
						C367.994,423.919,367.791,424.166,367.627,424.433z"/>
				</g>
			</g>
		</g>
	</g>
</g>
</svg>
