<?xml version="1.0" encoding="utf-8"?>
<!-- Generator: Adobe Illustrator 27.5.0, SVG Export Plug-In . SVG Version: 6.00 Build 0)  -->
<svg version="1.1" xmlns="http://www.w3.org/2000/svg" xmlns:xlink="http://www.w3.org/1999/xlink" x="0px" y="0px"
	 viewBox="0 0 750 500" style="enable-background:new 0 0 750 500;" xml:space="preserve">
<g id="BACKGROUND">
	<rect style="fill:#F8F7E9;" width="750.12" height="500"/>
</g>
<g id="OBJECTS">
	<g>
		<path style="fill:#584CDC;" d="M691.923,127.271c0,15.004-12.166,27.17-27.17,27.17c-5.861,0-11.29-1.856-15.73-5.014
			l-16.107,3.203l7.802-12.683c-2.003-3.785-3.135-8.099-3.135-12.676c0-15.006,12.164-27.17,27.17-27.17
			C679.758,100.101,691.923,112.265,691.923,127.271z"/>
		<g>
			<path style="fill:#F8F7E9;" d="M680.741,129.361c-0.994,0.131-1.794-0.508-2.257-1.589c-0.566-1.322-1.19-3.674-2.844-4.008
				c-1.781-0.36-2.797,1.456-3.258,2.856c-0.367,1.117-0.736,2.681-2.095,2.958c-1.641,0.334-2.668-1.251-3.11-2.567
				c-0.489-1.453-1.015-3.452-2.926-3.47c-2.047-0.019-2.809,2.105-3.335,3.693c-0.404,1.219-1.431,3.227-3.057,2.341
				c-1.287-0.701-1.3-2.365-1.664-3.6c-0.484-1.641-1.937-2.889-3.562-1.694c-1.697,1.248-2.429,3.63-2.324,5.652
				c0.029,0.549,0.886,0.552,0.857,0c-0.059-1.129,0.129-2.221,0.638-3.236c0.54-1.077,2.019-2.994,3.146-1.431
				c1.089,1.51,0.526,3.685,2.227,4.886c1.233,0.871,2.696,0.422,3.598-0.687c1.02-1.254,1.766-6.665,4.368-4.7
				c0.943,0.712,1.013,2.085,1.435,3.105c0.306,0.74,0.755,1.43,1.4,1.918c1.148,0.868,2.758,0.929,3.828-0.097
				c1.332-1.277,1.142-4.617,3.133-5.031c1.969-0.409,2.472,3.457,3.413,4.624c0.626,0.777,1.51,1.04,2.39,0.935V129.361z"/>
		</g>
		<g>
			<path style="fill:#F8F7E9;" d="M680.741,119.382c-1.155,0.347-2.088-0.31-2.603-1.513c-0.566-1.322-1.19-3.674-2.844-4.009
				c-1.781-0.36-2.797,1.456-3.258,2.857c-0.367,1.117-0.736,2.681-2.095,2.958c-1.641,0.334-2.668-1.251-3.11-2.567
				c-0.488-1.453-1.015-3.452-2.926-3.47c-2.047-0.019-2.809,2.105-3.335,3.693c-0.404,1.219-1.431,3.227-3.057,2.341
				c-1.287-0.701-1.3-2.365-1.664-3.6c-0.484-1.641-1.937-2.889-3.562-1.694c-1.697,1.248-2.429,3.63-2.323,5.652
				c0.029,0.549,0.886,0.552,0.857,0c-0.059-1.129,0.129-2.221,0.638-3.236c0.54-1.077,2.019-2.994,3.146-1.431
				c1.089,1.51,0.526,3.685,2.227,4.886c1.233,0.871,2.696,0.422,3.598-0.688c1.02-1.254,1.766-6.665,4.368-4.7
				c0.943,0.712,1.013,2.085,1.435,3.105c0.306,0.74,0.755,1.43,1.4,1.918c1.148,0.868,2.758,0.929,3.828-0.097
				c1.331-1.276,1.141-4.617,3.133-5.031c1.969-0.409,2.472,3.457,3.413,4.624c0.708,0.879,1.746,1.11,2.736,0.886V119.382z"/>
		</g>
		<g>
			<path style="fill:#F8F7E9;" d="M680.741,139.189c-1.155,0.347-2.088-0.31-2.603-1.514c-0.566-1.322-1.19-3.674-2.844-4.008
				c-1.781-0.36-2.797,1.456-3.258,2.857c-0.367,1.117-0.736,2.681-2.095,2.958c-1.641,0.334-2.668-1.251-3.11-2.567
				c-0.488-1.453-1.015-3.452-2.926-3.47c-2.047-0.019-2.809,2.105-3.335,3.693c-0.404,1.219-1.431,3.227-3.057,2.342
				c-1.287-0.701-1.3-2.366-1.664-3.6c-0.484-1.641-1.937-2.889-3.562-1.694c-1.697,1.248-2.429,3.63-2.323,5.652
				c0.029,0.549,0.886,0.552,0.857,0c-0.059-1.129,0.129-2.221,0.638-3.236c0.54-1.077,2.019-2.994,3.146-1.431
				c1.089,1.51,0.526,3.685,2.227,4.886c1.233,0.871,2.696,0.422,3.598-0.687c1.02-1.254,1.766-6.665,4.368-4.7
				c0.943,0.712,1.013,2.085,1.435,3.105c0.306,0.74,0.755,1.43,1.4,1.918c1.148,0.868,2.758,0.929,3.828-0.097
				c1.331-1.276,1.141-4.617,3.133-5.031c1.969-0.409,2.472,3.457,3.413,4.624c0.708,0.879,1.746,1.11,2.736,0.885V139.189z"/>
		</g>
	</g>
	<g>
		<g>
			<g>
				<g>
					<g>
						<g style="opacity:0.5;">
							<rect x="178.625" y="85.204" style="fill:#E4CDB6;" width="144.919" height="69.139"/>
						</g>
						<g>
							<path style="fill:#E4CDB6;" d="M173.14,79.718v80.109h155.89V79.718H173.14z M323.545,154.342h-144.92V85.205h144.92V154.342
								z"/>
						</g>
						<g>
							<g style="opacity:0.3;">
								<polygon style="fill:#F8F7E9;" points="323.544,85.204 323.544,108.587 277.79,154.343 254.405,154.343 								"/>
							</g>
							<g style="opacity:0.3;">
								<polygon style="fill:#F8F7E9;" points="295.829,85.204 226.69,154.343 219.006,154.343 288.144,85.204 								"/>
							</g>
							<g style="opacity:0.3;">
								<polygon style="fill:#F8F7E9;" points="254.822,85.204 185.683,154.343 178.625,154.343 178.625,129.47 222.891,85.204 
																	"/>
							</g>
						</g>
					</g>
					<g>
						<path style="fill:#F8F7E9;" d="M254.502,157.665h-6.835c-0.314,0-0.57-0.255-0.57-0.57l0,0c0-0.315,0.255-0.57,0.57-0.57
							h6.835c0.315,0,0.57,0.255,0.57,0.57l0,0C255.072,157.41,254.817,157.665,254.502,157.665z"/>
					</g>
				</g>
			</g>
			<g>
				<g style="opacity:0.3;">
					<path style="fill:#E4CDB6;" d="M551.613,266.226V85.911c0-1.432,1.161-2.592,2.592-2.592h53.53
						c1.432,0,2.592,1.161,2.592,2.592v180.315c0,1.432-1.161,2.592-2.592,2.592h-53.53
						C552.773,268.818,551.613,267.658,551.613,266.226z"/>
				</g>
				<g style="opacity:0.5;">
					<path style="fill:#C4A78E;" d="M612.849,79.376h-63.757c-0.784,0-1.421,0.637-1.421,1.423V271.34
						c0,0.784,0.637,1.421,1.421,1.421h63.757c0.784,0,1.421-0.637,1.421-1.421V80.799C614.27,80.013,613.633,79.376,612.849,79.376
						z M610.329,268.172c0,0.358-0.289,0.647-0.647,0.647h-57.423c-0.358,0-0.647-0.289-0.647-0.647V83.964
						c0-0.356,0.289-0.644,0.647-0.644h57.423c0.358,0,0.647,0.289,0.647,0.644V268.172z"/>
				</g>
				<g style="opacity:0.8;">
					<rect x="551.064" y="209.331" style="fill:#E4CDB6;" width="59.264" height="2.333"/>
				</g>
				<g style="opacity:0.8;">
					<rect x="551.064" y="132.713" style="fill:#E4CDB6;" width="59.264" height="2.333"/>
				</g>
			</g>
			<g>
				<g style="opacity:0.5;">
					<g>
						<path style="fill:#E4CDB6;" d="M510.412,251.999V83.077c0-2.471-1.212-4.474-2.707-4.474H365.668
							c-1.495,0-2.707,2.003-2.707,4.474v168.922H510.412z"/>
					</g>
				</g>
				<path style="opacity:0.5;fill:#C4A78E;" d="M473.003,214.452H410.47c-0.417,0-0.755-0.338-0.755-0.755v-0.063
					c0-0.417,0.338-0.755,0.755-0.755h62.533c0.417,0,0.755,0.338,0.755,0.755v0.063
					C473.758,214.114,473.42,214.452,473.003,214.452z"/>
				<path style="opacity:0.5;fill:#C4A78E;" d="M473.003,220.494H410.47c-0.417,0-0.755-0.338-0.755-0.755v-0.063
					c0-0.417,0.338-0.755,0.755-0.755h62.533c0.417,0,0.755,0.338,0.755,0.755v0.063
					C473.758,220.156,473.42,220.494,473.003,220.494z"/>
				<path style="opacity:0.5;fill:#C4A78E;" d="M473.003,226.881H410.47c-0.417,0-0.755-0.338-0.755-0.755v-0.063
					c0-0.417,0.338-0.755,0.755-0.755h62.533c0.417,0,0.755,0.338,0.755,0.755v0.063
					C473.758,226.543,473.42,226.881,473.003,226.881z"/>
				<g>
					<g>
						<path style="fill:#C4A78E;" d="M398.04,148.749c1.3-10.379,7.474-19.89,16.403-25.329c0.32-0.195,0.027-0.699-0.294-0.503
							c-9.121,5.555-15.365,15.241-16.692,25.832C397.41,149.12,397.994,149.117,398.04,148.749L398.04,148.749z"/>
					</g>
					<g>
						<path style="fill:#C4A78E;" d="M410.965,121.922c1.941-0.026,3.883-0.077,5.823-0.078c0.143-0.004,0.286-0.003,0.429,0.004
							c0.528,0.395,0.615,0.781,0.261,1.155c-0.145,0.431-0.539,0.888-0.776,1.278c-0.518,0.852-1.035,1.705-1.553,2.557
							c-0.195,0.322,0.309,0.615,0.503,0.294c0.744-1.225,1.488-2.451,2.232-3.676c0.351-0.578,0.914-1.354,0.221-1.917
							c-0.644-0.523-1.9-0.271-2.633-0.261c-1.503,0.02-3.006,0.04-4.508,0.06C410.59,121.343,410.589,121.926,410.965,121.922
							L410.965,121.922z"/>
					</g>
					<g>
						<path style="fill:#C4A78E;" d="M455.845,119.017c9.561,4.33,16.839,13.026,19.399,23.207c0.091,0.364,0.654,0.21,0.562-0.155
							c-2.593-10.313-9.978-19.168-19.667-23.555C455.8,118.36,455.504,118.862,455.845,119.017L455.845,119.017z"/>
					</g>
					<g>
						<path style="fill:#C4A78E;" d="M478.068,138.706c-0.549,1.859-1.05,3.742-1.65,5.585c-0.52,1.598-1.745-0.184-2.309-0.822
							c-0.661-0.747-1.322-1.494-1.982-2.24c-0.249-0.282-0.66,0.132-0.412,0.412c0.95,1.074,1.9,2.147,2.85,3.221
							c0.445,0.503,1.032,1.272,1.768,0.763c0.677-0.468,0.814-1.741,1.021-2.44c0.426-1.441,0.852-2.883,1.277-4.324
							C478.737,138.5,478.175,138.346,478.068,138.706L478.068,138.706z"/>
					</g>
					<g>
						<path style="fill:#C4A78E;" d="M416.761,192.916c0.269-1.968,0.405-4.013,0.814-5.957c0.026-0.218,0.084-0.427,0.173-0.629
							c0.431-0.151,0.776-0.068,1.034,0.249c0.409,0.241,0.784,0.653,1.149,0.958c0.766,0.638,1.532,1.277,2.298,1.915
							c0.286,0.239,0.701-0.172,0.412-0.412c-1.101-0.918-2.202-1.836-3.303-2.753c-0.478-0.398-1.09-1.051-1.753-0.628
							c-0.746,0.477-0.676,1.9-0.776,2.634c-0.203,1.489-0.407,2.978-0.61,4.468C416.149,193.128,416.71,193.287,416.761,192.916
							L416.761,192.916z"/>
					</g>
					<g>
						<path style="fill:#C4A78E;" d="M418.785,189.469c8.392,11.715,25.422,14.363,37.687,7.502
							c3.315-1.855,6.239-4.362,8.463-7.449c0.22-0.305-0.286-0.596-0.503-0.294c-8.206,11.388-24.835,13.912-36.781,7.279
							c-3.272-1.817-6.178-4.283-8.362-7.332C419.071,188.872,418.565,189.163,418.785,189.469L418.785,189.469z"/>
					</g>
					<g style="opacity:0.8;">
						<path style="fill:#C4A78E;" d="M407.035,177.748c-0.275,0.367-0.643,0.774-1.102,1.217c-0.459,0.444-1.018,0.85-1.676,1.217
							c-0.659,0.367-1.423,0.682-2.296,0.941c-0.872,0.26-1.86,0.39-2.962,0.39c-2.663,0-4.746-0.613-6.245-1.837
							c-1.5-1.224-2.25-3-2.25-5.327c0-2.908,1.355-5.104,4.064-6.59c2.709-1.484,6.865-2.227,12.467-2.227
							c0-0.857-0.275-1.516-0.827-1.975c-0.551-0.459-1.684-0.689-3.398-0.689c-1.837,0-3.682,0.138-5.533,0.413
							c-1.853,0.276-3.559,0.582-5.12,0.919v-7.898c1.561-0.428,3.474-0.804,5.74-1.125c2.265-0.321,4.592-0.482,6.98-0.482
							c2.449,0,4.492,0.23,6.13,0.689c1.637,0.459,2.946,1.156,3.926,2.089c0.979,0.934,1.668,2.097,2.066,3.49
							c0.397,1.393,0.597,3.008,0.597,4.845v7.531h2.02v7.531h-12.582V177.748z M407.035,170.125c-1.899,0-3.26,0.131-4.087,0.391
							c-0.827,0.26-1.24,0.712-1.24,1.355c0,0.98,0.841,1.469,2.526,1.469c1.867,0,2.801-0.979,2.801-2.939V170.125z"/>
					</g>
					<g style="opacity:0.8;">
						<path style="fill:#C4A78E;" d="M436.178,116.588c0.255-0.34,0.589-0.716,1-1.128c0.411-0.411,0.901-0.787,1.469-1.128
							c0.567-0.34,1.192-0.631,1.873-0.873c0.681-0.241,1.433-0.362,2.256-0.362c2.951,0,5.143,1.086,6.577,3.256
							c1.433,2.171,2.15,5.229,2.15,9.173c0,3.945-0.717,7.002-2.15,9.173c-1.433,2.171-3.625,3.256-6.577,3.256
							c-0.823,0-1.575-0.121-2.256-0.362c-0.681-0.241-1.306-0.532-1.873-0.873c-0.568-0.34-1.058-0.716-1.469-1.128
							c-0.412-0.411-0.745-0.787-1-1.128v2.895h-11.663v-6.981h1.873v-19.155h-1.873v-6.981h11.663V116.588z M441.116,123.398
							c0-0.964-0.206-1.66-0.617-2.086c-0.412-0.426-1.029-0.638-1.852-0.638c-0.823,0-1.441,0.213-1.852,0.638
							c-0.412,0.426-0.617,1.121-0.617,2.086v4.257c0,0.965,0.206,1.66,0.617,2.086c0.411,0.426,1.028,0.638,1.852,0.638
							c0.823,0,1.44-0.213,1.852-0.638c0.411-0.426,0.617-1.121,0.617-2.086V123.398z"/>
					</g>
					<g style="opacity:0.8;">
						<path style="fill:#C4A78E;" d="M471.109,170.345c0,1.215,0.336,2.159,1.009,2.831c0.672,0.673,1.797,1.009,3.373,1.009
							c1.608,0,3.216-0.081,4.825-0.246c1.608-0.164,3.167-0.377,4.677-0.64v7.73c-0.624,0.23-1.297,0.46-2.019,0.689
							c-0.722,0.23-1.526,0.435-2.413,0.616c-0.886,0.18-1.863,0.328-2.93,0.443c-1.067,0.115-2.273,0.172-3.619,0.172
							c-2.298,0-4.366-0.295-6.204-0.886c-1.839-0.591-3.406-1.485-4.702-2.683c-1.297-1.198-2.289-2.691-2.979-4.48
							c-0.689-1.789-1.034-3.897-1.034-6.327c0-2.396,0.345-4.497,1.034-6.302c0.689-1.805,1.682-3.307,2.979-4.505
							c1.296-1.198,2.863-2.092,4.702-2.683c1.838-0.591,3.89-0.886,6.154-0.886c1.379,0,2.634,0.098,3.767,0.296
							c1.133,0.197,2.158,0.443,3.077,0.739c0.919,0.295,1.748,0.624,2.487,0.984c0.738,0.362,1.403,0.706,1.994,1.034v9.749h-8.469
							v-0.886c0-1.115-0.238-1.92-0.714-2.413c-0.476-0.492-1.19-0.739-2.142-0.739c-0.919,0-1.625,0.246-2.117,0.739
							c-0.492,0.492-0.738,1.297-0.738,2.413V170.345z"/>
					</g>
				</g>
				<g>
					<g>
						<rect x="368.87" y="93.365" style="fill:#E4CDB6;" width="1.105" height="158.634"/>
					</g>
				</g>
				<g>
					<g>
						<rect x="503.954" y="93.365" style="fill:#E4CDB6;" width="1.105" height="158.634"/>
					</g>
				</g>
				<g>
					<g>
						<path style="fill:#E4CDB6;" d="M508.159,78.603H366.023c-1.692,0-3.063,1.371-3.063,3.063v13.479h147.451V80.856
							C510.412,79.612,509.403,78.603,508.159,78.603z"/>
					</g>
				</g>
				<g>
					<g>
						<path style="fill:#E4CDB6;" d="M512.748,255.105H360.624c-0.858,0-1.553-0.695-1.553-1.553l0,0
							c0-0.858,0.695-1.553,1.553-1.553h152.124c0.858,0,1.553,0.695,1.553,1.553l0,0
							C514.301,254.41,513.606,255.105,512.748,255.105z"/>
					</g>
				</g>
			</g>
		</g>
		<g>
			<g>
				<g>
					<g>
						<g>
							<path style="fill:#E4CDB6;" d="M321.164,204.888c-4.415,0-8.007-3.592-8.007-8.007c0-4.415,3.592-8.007,8.007-8.007
								c4.415,0,8.007,3.592,8.007,8.007C329.17,201.296,325.578,204.888,321.164,204.888z M321.164,190.174
								c-3.698,0-6.707,3.009-6.707,6.707c0,3.698,3.009,6.707,6.707,6.707s6.707-3.009,6.707-6.707
								C327.871,193.183,324.862,190.174,321.164,190.174z"/>
						</g>
					</g>
				</g>
			</g>
			<g>
				<g>
					<g>
						<g>
							<path style="fill:#E4CDB6;" d="M672.355,184.075c-4.415,0-8.007-3.592-8.007-8.007c0-4.415,3.592-8.007,8.007-8.007
								c4.415,0,8.007,3.592,8.007,8.007C680.362,180.483,676.77,184.075,672.355,184.075z M672.355,169.361
								c-3.698,0-6.707,3.009-6.707,6.707c0,3.698,3.009,6.707,6.707,6.707s6.707-3.009,6.707-6.707
								C679.062,172.37,676.053,169.361,672.355,169.361z"/>
						</g>
					</g>
				</g>
			</g>
			<g>
				<g>
					<g>
						<g>
							<path style="fill:#E4CDB6;" d="M117.349,267.864c-4.415,0-8.007-3.592-8.007-8.007c0-4.415,3.592-8.007,8.007-8.007
								s8.007,3.592,8.007,8.007C125.356,264.273,121.764,267.864,117.349,267.864z M117.349,253.15
								c-3.698,0-6.707,3.009-6.707,6.707c0,3.698,3.009,6.707,6.707,6.707c3.698,0,6.707-3.009,6.707-6.707
								C124.057,256.159,121.048,253.15,117.349,253.15z"/>
						</g>
					</g>
				</g>
			</g>
		</g>
		<g>
			<g>
				<g>
					<g>
						<path style="fill:#E4CDB6;" d="M114.205,148.257c-16.417,0-29.773-13.356-29.773-29.773s13.356-29.773,29.773-29.773
							c16.417,0,29.773,13.356,29.773,29.773S130.622,148.257,114.205,148.257z M114.205,89.894
							c-15.765,0-28.591,12.826-28.591,28.591c0,15.765,12.826,28.591,28.591,28.591c15.765,0,28.591-12.826,28.591-28.591
							C142.796,102.719,129.97,89.894,114.205,89.894z"/>
					</g>
				</g>
			</g>
			<g style="opacity:0.5;">
				<g>
					<g>
						
							<ellipse transform="matrix(0.1222 -0.9925 0.9925 0.1222 -17.3452 217.3571)" style="fill:#E4CDB6;" cx="114.205" cy="118.484" rx="23.576" ry="23.576"/>
					</g>
				</g>
			</g>
			<g>
				<g>
					<g>
						<path style="fill:#E4CDB6;" d="M114.205,101.026L114.205,101.026c-0.31,0-0.562-0.251-0.562-0.561v-3.309
							c0-0.31,0.251-0.561,0.562-0.561l0,0c0.31,0,0.561,0.251,0.561,0.561v3.309C114.767,100.775,114.515,101.026,114.205,101.026z
							"/>
					</g>
				</g>
			</g>
			<g>
				<g>
					<g>
						<path style="fill:#E4CDB6;" d="M101.861,106.139L101.861,106.139c-0.219,0.219-0.575,0.219-0.794,0l-2.34-2.34
							c-0.219-0.219-0.219-0.575,0-0.794l0,0c0.219-0.219,0.575-0.219,0.794,0l2.34,2.34
							C102.08,105.565,102.08,105.92,101.861,106.139z"/>
					</g>
				</g>
			</g>
			<g>
				<g>
					<g>
						<path style="fill:#E4CDB6;" d="M96.747,118.484L96.747,118.484c0,0.31-0.251,0.561-0.561,0.561h-3.309
							c-0.31,0-0.561-0.251-0.561-0.561l0,0c0-0.31,0.251-0.561,0.561-0.561h3.309C96.496,117.923,96.747,118.174,96.747,118.484z"
							/>
					</g>
				</g>
			</g>
			<g>
				<g>
					<g>
						<path style="fill:#E4CDB6;" d="M101.861,130.829L101.861,130.829c0.219,0.219,0.219,0.575,0,0.794l-2.34,2.34
							c-0.219,0.219-0.575,0.219-0.794,0l0,0c-0.219-0.219-0.219-0.575,0-0.794l2.34-2.34
							C101.286,130.61,101.641,130.61,101.861,130.829z"/>
					</g>
				</g>
			</g>
			<g>
				<g>
					<g>
						<path style="fill:#E4CDB6;" d="M114.205,135.943L114.205,135.943c0.31,0,0.561,0.251,0.561,0.561v3.309
							c0,0.31-0.251,0.561-0.561,0.561l0,0c-0.31,0-0.562-0.251-0.562-0.561v-3.309
							C113.644,136.194,113.895,135.943,114.205,135.943z"/>
					</g>
				</g>
			</g>
			<g>
				<g>
					<g>
						<path style="fill:#E4CDB6;" d="M126.55,130.829L126.55,130.829c0.219-0.219,0.575-0.219,0.794,0l2.34,2.34
							c0.219,0.219,0.219,0.575,0,0.794l0,0c-0.219,0.219-0.575,0.219-0.794,0l-2.34-2.34
							C126.331,131.404,126.331,131.048,126.55,130.829z"/>
					</g>
				</g>
			</g>
			<g>
				<g>
					<g>
						<path style="fill:#E4CDB6;" d="M131.664,118.484L131.664,118.484c0-0.31,0.251-0.561,0.561-0.561h3.309
							c0.31,0,0.561,0.251,0.561,0.561l0,0c0,0.31-0.251,0.561-0.561,0.561h-3.309C131.915,119.046,131.664,118.794,131.664,118.484
							z"/>
					</g>
				</g>
			</g>
			<g>
				<g>
					<g>
						<path style="fill:#E4CDB6;" d="M126.55,106.139L126.55,106.139c-0.219-0.219-0.219-0.575,0-0.794l2.34-2.34
							c0.219-0.219,0.575-0.219,0.794,0l0,0c0.219,0.219,0.219,0.575,0,0.794l-2.34,2.34
							C127.125,106.359,126.769,106.359,126.55,106.139z"/>
					</g>
				</g>
			</g>
			<g>
				<g>
					<g>
						<path style="fill:#E4CDB6;" d="M122.673,127.381c-0.062,0-0.123-0.024-0.169-0.071l-8.468-8.66
							c-0.091-0.093-0.09-0.241,0.002-0.332l9.536-9.536c0.092-0.092,0.242-0.092,0.334,0c0.092,0.092,0.092,0.242,0,0.334
							l-9.37,9.37l8.304,8.493c0.091,0.093,0.09,0.243-0.004,0.334C122.792,127.359,122.733,127.381,122.673,127.381z"/>
					</g>
				</g>
			</g>
		</g>
		<g style="opacity:0.5;">
			<g>
				<g>
					<g>
						<g>
							<path style="fill:#E4CDB6;" d="M113.143,202.837H85.926c-0.471,0-0.853-0.382-0.853-0.853v-11.316
								c0-0.471,0.382-0.853,0.853-0.853h27.217c0.471,0,0.853,0.382,0.853,0.853v11.316
								C113.996,202.456,113.614,202.837,113.143,202.837z"/>
						</g>
					</g>
				</g>
			</g>
			<g>
				<g>
					<g>
						<g>
							<path style="fill:#E4CDB6;" d="M144.07,202.837h-27.217c-0.471,0-0.853-0.382-0.853-0.853v-11.316
								c0-0.471,0.382-0.853,0.853-0.853h27.217c0.471,0,0.853,0.382,0.853,0.853v11.316
								C144.923,202.456,144.541,202.837,144.07,202.837z"/>
						</g>
					</g>
				</g>
			</g>
			<g>
				<g>
					<g>
						<g>
							<path style="fill:#E4CDB6;" d="M128.471,217.362h-27.217c-0.471,0-0.853-0.382-0.853-0.853v-11.316
								c0-0.471,0.382-0.853,0.853-0.853h27.217c0.471,0,0.853,0.382,0.853,0.853v11.315
								C129.324,216.98,128.942,217.362,128.471,217.362z"/>
						</g>
					</g>
				</g>
			</g>
		</g>
		<g style="opacity:0.5;">
			<g>
				<g>
					<g>
						<g>
							<path style="fill:#E4CDB6;" d="M473.531,313.658h-27.217c-0.471,0-0.853-0.382-0.853-0.853v-11.316
								c0-0.471,0.382-0.853,0.853-0.853h27.217c0.471,0,0.853,0.382,0.853,0.853v11.316
								C474.385,313.276,474.003,313.658,473.531,313.658z"/>
						</g>
					</g>
				</g>
			</g>
			<g>
				<g>
					<g>
						<g>
							<path style="fill:#E4CDB6;" d="M504.458,313.658h-27.217c-0.471,0-0.853-0.382-0.853-0.853v-11.316
								c0-0.471,0.382-0.853,0.853-0.853h27.217c0.471,0,0.853,0.382,0.853,0.853v11.316
								C505.311,313.276,504.929,313.658,504.458,313.658z"/>
						</g>
					</g>
				</g>
			</g>
			<g>
				<g>
					<g>
						<g>
							<path style="fill:#E4CDB6;" d="M488.859,328.182h-27.217c-0.471,0-0.853-0.382-0.853-0.853v-11.316
								c0-0.471,0.382-0.853,0.853-0.853h27.217c0.471,0,0.853,0.382,0.853,0.853v11.315
								C489.712,327.8,489.33,328.182,488.859,328.182z"/>
						</g>
					</g>
				</g>
			</g>
		</g>
		<g style="opacity:0.5;">
			<g>
				<g>
					<g>
						<g>
							<path style="fill:#E4CDB6;" d="M663.151,221.07h-27.217c-0.471,0-0.853-0.382-0.853-0.853v-11.316
								c0-0.471,0.382-0.853,0.853-0.853h27.217c0.471,0,0.853,0.382,0.853,0.853v11.316
								C664.004,220.688,663.622,221.07,663.151,221.07z"/>
						</g>
					</g>
				</g>
			</g>
			<g>
				<g>
					<g>
						<g>
							<path style="fill:#E4CDB6;" d="M694.078,221.07h-27.217c-0.471,0-0.853-0.382-0.853-0.853v-11.316
								c0-0.471,0.382-0.853,0.853-0.853h27.217c0.471,0,0.853,0.382,0.853,0.853v11.316
								C694.931,220.688,694.549,221.07,694.078,221.07z"/>
						</g>
					</g>
				</g>
			</g>
			<g>
				<g>
					<g>
						<g>
							<path style="fill:#E4CDB6;" d="M678.479,235.594h-27.217c-0.471,0-0.853-0.382-0.853-0.853v-11.316
								c0-0.471,0.382-0.853,0.853-0.853h27.217c0.471,0,0.853,0.382,0.853,0.853v11.315
								C679.332,235.212,678.95,235.594,678.479,235.594z"/>
						</g>
					</g>
				</g>
			</g>
		</g>
	</g>
	<g>
		<g>
			<path style="fill:#CF6A53;" d="M407.97,318.894c0,0-15.591,9.935-28.125,16.967l-7.031-22.469c0,0,23.266-2.141,28.403-7.806
				L407.97,318.894z"/>
			<ellipse cx="262.554" cy="450.855" rx="165.218" ry="8.578"/>
			<g>
				<path style="fill:#CF6A53;" d="M302.151,272.7c0,0,31.157,41.278,38.651,43.803c14.09,4.747,41.405,9.586,41.405,9.586
					l-1.987,8.712c0,0-48.568,24.624-76.421-19.564C291.648,295.958,302.151,272.7,302.151,272.7z"/>
			</g>
			<g>
				<path style="fill:#9B4937;" d="M339.288,315.968c-2.286,2.06-3.916,4.657-4.788,7.607c-0.136,0.462,0.584,0.659,0.72,0.198
					c0.837-2.834,2.4-5.3,4.596-7.278C340.173,316.173,339.644,315.647,339.288,315.968L339.288,315.968z"/>
			</g>
			<g>
				<path style="fill:#9B4937;" d="M338.728,316.503c-1.819,0.607-3.528,1.44-5.12,2.509c-0.397,0.266-0.024,0.913,0.377,0.645
					c1.541-1.035,3.18-1.846,4.942-2.433C339.38,317.072,339.186,316.35,338.728,316.503L338.728,316.503z"/>
			</g>
			<g>
				<path style="fill:#518E4B;" d="M325.477,299.773c0,0-1.525,5.82-5.278,11.392c-2.118,3.145-4.947,6.208-8.612,8.102
					c-0.219,0.115-0.443,0.224-0.669,0.326c-0.308,0.147-0.624,0.281-0.945,0.408c0-0.003,0-0.003,0-0.003l-0.383-2.822l-0.436-3.21
					l-0.075-0.55l-0.958-7.052l-0.179-1.314l-0.289-2.115l-2.257-16.625l-0.04-0.284l-0.072-0.542l-1.483-10.911l10.22,11.877
					l0.587,0.687L325.477,299.773z"/>
			</g>
			<g>
				<path d="M322.23,296.903c-0.611,2.912-1.933,5.544-3.892,7.782c-0.315,0.36,0.211,0.89,0.528,0.528
					c2.042-2.333,3.446-5.074,4.084-8.112C323.049,296.633,322.329,296.432,322.23,296.903L322.23,296.903z"/>
			</g>
			<g>
				<g>
					<g>
						<g>
							<path d="M277.961,212.26c0,0,15.848,1.569,16.75,12.626c0.902,11.058-4.618,18.789,0.498,27.112
								c5.115,8.324,4.335,21.508-3.399,26.309c-7.734,4.801-9.079-14.814-19.699-4.504c-10.62,10.31-21.915,8.219-25.29,4.784
								c-3.375-3.435,6.861-9.741,3.573-20.529c-3.288-10.788-5.25-14.837-2.547-28.013
								C251.224,213.58,259.821,206.906,277.961,212.26z"/>
						</g>
					</g>
					<g>
						<g>
							<path d="M259.321,212.707c0,0-3.842-13.265-15.967-6.07c-10.976,6.513-1.594,23.839,8.742,18.896
								C259.096,222.185,259.321,212.707,259.321,212.707z"/>
						</g>
					</g>
					<g>
						<g>
							<g>
								<path style="fill:#DC8D30;" d="M259.09,212.472c-4.856,3.115-8.266,7.965-9.583,13.579
									c-0.146,0.623-1.106,0.361-0.959-0.262c1.375-5.862,4.973-10.925,10.039-14.175
									C259.127,211.268,259.628,212.127,259.09,212.472L259.09,212.472z"/>
							</g>
						</g>
					</g>
					<g>
						<g>
							<path style="fill:#518E4B;" d="M321.404,405.543c-29.4-5.813-53.574-9.707-69.896-3.499
								c-12.108,4.601-3.531,11.163-3.531,11.163s-17.14-2.954-6.31-26.329c10.829-23.378-0.744-37.656-4.725-58.905
								c-0.356-1.894-0.717-3.675-1.077-5.36c-2.593-12.084-5.181-19.121-5.26-26.081c-0.003-0.266-0.003-0.533,0.002-0.801
								c0.042-2.685,0.475-5.387,1.436-8.393c0.677-2.122,1.983-4.253,3.685-6.261c2.342-2.765,5.435-5.3,8.674-7.269
								c0.236-0.144,0.473-0.284,0.709-0.418c1.834-1.063,3.703-1.934,5.497-2.558c0.286-0.099,0.567-0.192,0.848-0.276
								c0.988-0.306,1.948-0.53,2.859-0.662c4.066-0.587,7.015-0.682,7.015-0.682l11.038-0.465l2.319-0.1c0,0,0,0,0.002,0
								l14.199-0.6l0.749-0.03c0,0,0.674-0.015,1.757,0.097c0.231,0.025,0.48,0.057,0.749,0.092
								c4.061,0.567,11.852,2.809,14.092,11.633c0.525,2.073,0.883,4.158,1.125,6.228v0.002c0.03,0.264,0.06,0.525,0.087,0.786
								c0.53,5.138,0.396,10.187,0.428,14.828c0.015,2.551,0.085,4.977,0.341,7.224c0.162,1.426,0.401,2.779,0.749,4.048
								c0.099,0.358,0.194,0.806,0.289,1.336c0.147,0.839,0.291,1.879,0.435,3.095c0.547,4.621,1.092,11.763,1.879,19.84
								c0.025,0.256,0.05,0.515,0.075,0.774c0.239,2.429,0.5,4.937,0.789,7.482c0.027,0.244,0.055,0.488,0.082,0.732
								c2.147,18.62,5.835,38.978,13.539,44.649C326.052,390.867,350.811,411.351,321.404,405.543z"/>
						</g>
						<g>
							<path style="fill:#6CBE64;" d="M252.756,370.926c6.631,5.098,9.084,13.925,6.167,21.747c-0.168,0.451,0.553,0.645,0.72,0.198
								c3.043-8.162,0.374-17.297-6.51-22.59C252.753,369.989,252.38,370.637,252.756,370.926L252.756,370.926z"/>
						</g>
						<g>
							<path style="fill:#6CBE64;" d="M286.691,367.197c-8.341,3.712-13.421,12.359-12.629,21.457c0.041,0.475,0.788,0.479,0.746,0
								c-0.772-8.866,4.134-17.196,12.259-20.812C287.506,367.647,287.127,367.003,286.691,367.197L286.691,367.197z"/>
						</g>
						<g>
							<path style="fill:#6CBE64;" d="M268.72,311.057c-2.272,5.211-5.922,9.635-8.63,14.604
								c-2.745,5.036-4.524,11.155-2.085,16.675c0.192,0.435-0.451,0.816-0.645,0.378c-2.292-5.183-1.127-10.926,1.269-15.848
								c2.481-5.101,6.154-9.503,8.689-14.572c2.58-5.161,3.324-10.73,2.058-16.371c-2.394-10.678-10.469-18.558-18.77-25.09
								c0.286-0.099,0.567-0.192,0.848-0.276c4.439,3.514,8.702,7.301,12.156,11.81C269.877,290.533,272.987,301.263,268.72,311.057
								z"/>
						</g>
						<g>
							<path style="fill:#6CBE64;" d="M294.124,330.858c-3.66-6.281-10.435-11.073-17.912-10.821
								c-7.431,0.25-13.897,5.181-15.512,12.515c-1.137,5.166-0.128,10.443,0.873,15.541c0.092,0.471,0.812,0.272,0.72-0.199
								c-1.519-7.74-2.997-17.16,3.615-23.068c5.292-4.728,13.115-5.164,19.227-1.834c3.498,1.906,6.346,4.812,8.345,8.242
								C293.721,331.65,294.366,331.275,294.124,330.858L294.124,330.858z"/>
						</g>
						<g>
							<path style="fill:#6CBE64;" d="M311.642,338.004c-1.814,0.791-3.991,1.033-5.902,1.259
								c-8.431,0.995-17.083,0.722-25.319,3.018c-3.621,1.008-7.256,2.595-9.834,5.417c-2.528,2.767-3.802,6.726-2.6,10.359
								c0.152,0.458-0.567,0.652-0.719,0.197c-1.16-3.499-0.159-7.296,2.038-10.177c4.591-6.024,13.271-7.438,20.303-8.209
								c4.277-0.468,8.58-0.647,12.865-1.02c2.245-0.197,4.531-0.383,6.738-0.849c0.804-0.169,1.615-0.413,2.357-0.769
								C311.592,337.486,311.617,337.745,311.642,338.004z"/>
						</g>
						<g>
							<path style="fill:#6CBE64;" d="M301.74,369.198c-3.038-1.563-5.768-4.034-6.995-7.289c-1.16-3.076-0.595-6.417,1.209-9.12
								c3.705-5.564,10.192-6.903,16.475-7.303c0.027,0.244,0.055,0.488,0.082,0.732c-5.721,0.343-11.598,1.451-15.338,6.156
								c-2.068,2.6-2.921,5.98-1.772,9.165c1.137,3.153,3.8,5.514,6.714,7.015C302.544,368.772,302.166,369.417,301.74,369.198z"/>
						</g>
						<g>
							<path d="M250.412,347.688c3.058,11.801,2.785,24.294-0.78,35.951c-0.132,0.433,0.545,0.618,0.676,0.186
								c3.6-11.773,3.868-24.407,0.78-36.324C250.975,347.065,250.298,347.25,250.412,347.688L250.412,347.688z"/>
						</g>
						<g>
							<g>
								<path style="fill:#518E4B;" d="M315.265,323.477c-0.152,0.202-0.306,0.401-0.46,0.595c-1.389,1.772-2.832,3.317-4.036,4.511
									c-0.216,0.216-0.426,0.418-0.624,0.61c-0.222,0.214-0.433,0.413-0.63,0.595c-0.988,0.916-1.625,1.436-1.625,1.436
									c-1.304-0.943-2.521-1.884-3.645-2.822c-0.672-0.56-1.311-1.117-1.921-1.675c-14.131-12.932-11.591-25.503,2.837-40.493
									c0.189-0.199,0.383-0.398,0.58-0.6c0.448-0.458,0.906-0.916,1.376-1.379l0.003-0.003c0,0,0.326,0.732,0.896,1.953
									c0.117,0.256,0.246,0.533,0.388,0.831c0.829,1.767,2.003,4.218,3.354,6.89c0.115,0.224,0.229,0.45,0.343,0.679
									c1.963,3.842,4.255,8.047,6.398,11.282C322.299,311.632,319.112,318.388,315.265,323.477z"/>
							</g>
						</g>
						<g>
							<path style="fill:#6CBE64;" d="M315.265,323.477c-0.152,0.202-0.306,0.401-0.46,0.595c-2.147-1.809-3.877-4.113-5.116-6.681
								v-0.003c-0.891-1.846-1.525-3.827-1.884-5.858c-0.53-3.018-0.607-6.552,0.07-9.844v-0.003
								c0.607-2.966,1.829-5.733,3.882-7.756c0.115,0.224,0.229,0.45,0.343,0.679c-3.387,3.461-4.29,9.189-3.897,14.174
								c0.003,0.045,0.008,0.087,0.012,0.129c0.092,1.137,0.254,2.232,0.47,3.252c0.152,0.722,0.341,1.433,0.567,2.133
								c0,0.002,0,0.005,0.002,0.007C310.397,317.873,312.458,321.115,315.265,323.477z"/>
						</g>
						<g>
							<path style="fill:#6CBE64;" d="M314.608,287.137c-2.06,0.271-4.161,0.236-6.206-0.1c-0.321-0.052-0.639-0.112-0.956-0.179
								c-0.692-0.147-1.376-0.328-2.051-0.548c-0.077-0.025-0.157-0.05-0.236-0.077c-1.923-0.645-3.752-1.575-5.405-2.789
								c-4.892-3.593-7.948-9.299-8.361-15.328c0.231,0.025,0.48,0.057,0.749,0.092c0.436,5.843,3.481,11.424,8.296,14.813
								c1.5,1.055,3.135,1.876,4.845,2.464c0.152,0.052,0.304,0.102,0.455,0.149c0.535,0.169,1.075,0.314,1.62,0.436v0.002
								c0.219,0.05,0.436,0.095,0.654,0.134v0.003c1.973,0.376,4.004,0.46,6.007,0.241L314.608,287.137z"/>
						</g>
						<g>
							<path style="fill:#6CBE64;" d="M310.216,329.319c-0.348,0.144-0.694,0.284-1.043,0.413c-0.45-0.075-0.898-0.162-1.346-0.261
								c-4.484-0.988-8.65-3.133-11.76-6.597c-8.095-9.013-3.83-21.258-4.034-32.043c-0.104-5.539-1.48-11.155-5.564-15.132
								c-3.787-3.688-8.946-5.566-13.962-6.885c-0.055-0.015-0.102-0.037-0.139-0.067l2.319-0.1c0,0,0,0,0.002,0
								c4.606,1.364,9.17,3.334,12.571,6.786c8.51,8.635,4.571,21.484,4.506,32.137c-0.032,5.542,1.197,10.869,5.051,15.022
								c3.285,3.533,7.682,5.571,12.377,6.388c0.254,0.047,0.508,0.087,0.764,0.124
								C310.109,329.128,310.188,329.212,310.216,329.319z"/>
						</g>
						<g>
							<path d="M319.617,310.366c-0.734-6.024-4.021-10.959-7.41-15.866l-0.418-0.605c-2.72-3.939-5.44-7.888-6.89-12.4
								c-0.139-0.433,0.538-0.615,0.674-0.187c1.426,4.429,4.044,8.306,6.691,12.153c0.139,0.199,0.276,0.398,0.413,0.597
								c3.469,5.039,6.885,10.078,7.642,16.306C320.373,310.813,319.669,310.806,319.617,310.366z"/>
						</g>
						<g>
							<path d="M310.689,329.113c-0.157,0.07-0.316,0.139-0.473,0.206c-0.348,0.144-0.694,0.284-1.043,0.413
								c-12.193,4.551-25.777-0.485-38.087,3.782c-0.428,0.149-0.612-0.527-0.187-0.674c11.912-4.131,25.075,0.525,36.927-3.369
								c0.458-0.149,0.916-0.311,1.369-0.49c0.381-0.147,0.759-0.304,1.137-0.473C310.743,328.327,311.099,328.931,310.689,329.113z
								"/>
						</g>
					</g>
					<g>
						<g>
							<g>
								<g>
									<g>
										<g>
											<path style="fill:#CF6A53;" d="M260.979,270.777c0,0,11.621,8.274,21.815-0.666l-1.462-6.364l-1.596-6.944l-1.116-4.862
												l-15.332-7.837L260.979,270.777z"/>
										</g>
									</g>
								</g>
								<g>
									<g>
										<g>
											<path d="M266.94,251.983c6.913,11.809,13.245,15.797,15.233,15.424l-2.437-10.605L266.94,251.983z"/>
										</g>
									</g>
								</g>
							</g>
							<g>
								<g>
									<g>
										<path style="fill:#CF6A53;" d="M258.409,240.925c1.639,4.826,3.099,6.375,6.924,10.964
											c3.414,4.096,9.036,5.993,11.872,6.091c10.302,0.357,14.888-4.016,12.994-17.882c-1.178-8.609,0.994-13.541-1.354-16.781
											l-0.004,0c-0.155-0.147-0.31-0.29-0.465-0.43c-3.742-3.353-8.692-5.04-13.713-4.863
											C249.71,218.905,256.057,233.999,258.409,240.925z"/>
									</g>
								</g>
							</g>
							<path style="fill:#EEDDD2;" d="M277.803,244.613c0,0,1.556,3.692,4.434,3.286c2.878-0.406,3.485-3.493,3.485-3.493
								L277.803,244.613z"/>
							<g>
								<path d="M276.501,237.589c0.079,0.843,0.57,1.487,1.098,1.437c0.528-0.049,0.892-0.773,0.814-1.616
									c-0.079-0.843-0.57-1.486-1.098-1.437C276.786,236.023,276.422,236.746,276.501,237.589z"/>
							</g>
							<g>
								<path d="M284.882,237.191c0.079,0.843,0.571,1.487,1.099,1.437c0.528-0.049,0.892-0.773,0.814-1.616
									c-0.079-0.843-0.571-1.487-1.099-1.437C285.168,235.624,284.803,236.348,284.882,237.191z"/>
							</g>
							<g>
								<path d="M278.448,231.938c-1.072-0.477-4.372-0.137-5.848,1.827c-0.411,0.547,0.041,1.355,0.704,1.524
									c1.634,0.417,3.677-0.042,5.437-1.325C279.484,233.423,279.288,232.312,278.448,231.938z"/>
							</g>
							<g>
								<path d="M289.694,233.309c-0.631-0.99-3.571-2.526-5.886-1.703c-0.644,0.229-0.713,1.153-0.254,1.659
									c1.133,1.249,3.09,1.993,5.266,1.895C289.738,235.119,290.188,234.085,289.694,233.309z"/>
							</g>
							<g>
								<g>
									<g>
										<path d="M281.647,241.721c-0.002-0.002-0.003-0.005-0.005-0.007c-0.111-0.155-0.103-0.366,0.022-0.51
											c0.396-0.452,0.878-0.922,1.254-1.272l-1.577-0.358c-0.169-0.039-0.297-0.179-0.319-0.351l-0.331-2.552
											c-0.028-0.215,0.101-0.431,0.312-0.48c0.243-0.056,0.475,0.109,0.506,0.35l0.296,2.289l2.072,0.471
											c0.152,0.035,0.272,0.152,0.31,0.303c0.038,0.151-0.012,0.311-0.129,0.414c-0.509,0.443-1.259,1.152-1.773,1.735
											C282.112,241.95,281.8,241.936,281.647,241.721z"/>
									</g>
								</g>
							</g>
							<g>
								<g>
									<g>
										<g>
											<path style="fill:#9B4937;" d="M283.231,249.922c-0.991,0.429-2.075,0.526-2.963-0.174
												c-0.45-0.355,0.121-1.035,0.571-0.681c0.634,0.5,1.398,0.318,2.082,0.022
												C283.447,248.861,283.754,249.695,283.231,249.922L283.231,249.922z"/>
										</g>
									</g>
								</g>
							</g>
							<g>
								<g>
									<g>
										<path style="fill:#9B4937;" d="M270.676,242.602c0.054,0.741,1.251,1.258,2.673,1.154c1.422-0.104,2.532-0.789,2.478-1.53
											c-0.054-0.741-1.251-1.258-2.673-1.155C271.732,241.176,270.622,241.861,270.676,242.602z"/>
									</g>
								</g>
							</g>
							<g>
								<g>
									<g>
										<path style="fill:#9B4937;" d="M286.047,241.36c0.054,0.743,1.252,1.259,2.672,1.156c0.67-0.049,1.27-0.227,1.71-0.477
											c-0.063-0.627-0.139-1.273-0.229-1.94c-0.002-0.028-0.007-0.056-0.009-0.08c-0.459-0.157-1.043-0.231-1.667-0.185
											C287.103,239.937,285.993,240.621,286.047,241.36z"/>
									</g>
								</g>
							</g>
							<g>
								<g>
									<g>
										<path d="M257.047,221.382c7.571-6.22,21.75-11.218,32.433-1.104c4.582,1.233,0.674,13.766,0.433,10.583
											c-0.568-7.499-4.359-10.94-5.899-8.76c0,0-12.426,13.926-20.692,13.544c0,0-1.369,6.227-5.961,8.252
											C253.915,237.069,253.371,228.139,257.047,221.382z"/>
									</g>
								</g>
							</g>
							<g>
								<g>
									<path d="M285.539,219.974c0,0-0.248,9.971-7.93,10.594c0,0,5.654-4.334,3.759-9.914
										C279.473,215.074,285.539,219.974,285.539,219.974z"/>
								</g>
							</g>
						</g>
						<g>
							<g>
								<g>
									<g>
										<g>
											<path style="fill:#CF6A53;" d="M268.433,244.152c0.478-1.839,0.004-3.791-1.149-5.303
												c-1.493-1.958-4.205-4.943-6.567-4.444c-3.471,0.733-3.667,3.88-3.099,7.03c0.568,3.15,2.948,7.16,7.275,6.181
												C267.059,247.126,268.042,245.658,268.433,244.152z"/>
										</g>
									</g>
								</g>
							</g>
							<g>
								<g>
									<g>
										<g>
											<g>
												<path d="M263.769,243.878c0.108-1.307,0.128-2.671-0.414-3.897c-0.485-1.095-1.808-2.653-3.215-2.117
													c-0.472,0.18-0.833-0.525-0.358-0.706c1.356-0.517,2.706,0.233,3.571,1.305c1.249,1.546,1.363,3.57,1.206,5.469
													C264.517,244.438,263.727,244.387,263.769,243.878L263.769,243.878z"/>
											</g>
										</g>
									</g>
								</g>
							</g>
						</g>
					</g>
					<g>
						<g>
							<path d="M269.361,232.775c0,0-2.5,1.961-0.75,7.089c1.75,5.128,2.959,16.191-3.965,18.166
								c-6.924,1.975-7.246-6.917-7.246-6.917s10.319-2.674,3.317-16.707C257.259,227.475,267.528,230.064,269.361,232.775z"/>
						</g>
					</g>
					<g>
						<g>
							<g>
								<path d="M235.093,300.218c3.119,15.113,5.782,30.322,7.483,45.664c0.088,0.789-1.149,0.783-1.236,0
									c-1.689-15.232-4.343-30.331-7.439-45.335C233.742,299.77,234.933,299.439,235.093,300.218L235.093,300.218z"/>
							</g>
						</g>
					</g>
				</g>
			</g>
			<g>
				<g>
					<path d="M318.715,372.245c0,0,14.248,41.209,7.041,45.779c-7.207,4.57-65.775-8.589-65.775-8.589l-23.745-10.989l7.048-15.086
						C269.087,385.303,295.317,380.412,318.715,372.245z"/>
				</g>
			</g>
			<g>
				<g>
					<g>
						<path style="fill:#CF6A53;" d="M335.981,430.844c1.036-0.287,7.59-1.352,7.59-1.352s10.715-8.037,16.07-4.549
							c3.576,2.329,3.165,9.264,12.902,12.953c9.737,3.689,18.209,16.535,10.687,16.441c-6.724-0.084-32.049-10.538-48.778-14.352
							L335.981,430.844z"/>
					</g>
					<g>
						<g>
							<g>
								<g>
									<g>
										<g>
											<g>
												<path d="M334.407,419.404c8.759,15.3-0.652,21.19-0.652,21.19s-14.671,6.854-67.044,4.914
													c-30.197-1.119-60.178-8.493-76.513-19.26c-11.994-7.905-16.629-17.644-8.59-28.078c1.853-2.404,4.228-4.212,6.88-5.559
													c12.218-6.206,30.325-2.645,30.325-2.645c36.338,4.478,30.195,12.109,61.886,19.96
													C298.826,414.415,334.407,419.404,334.407,419.404z"/>
											</g>
										</g>
									</g>
								</g>
							</g>
						</g>
					</g>
					<g>
						<g>
							<g>
								<path style="fill:#4B547A;" d="M245.886,395.497c12.768,6.215,26.622,10.197,40.39,13.617
									c13.106,3.256,26.363,5.86,39.639,8.339c0.759,0.142,0.438,1.283-0.319,1.141c-13.555-2.531-27.092-5.19-40.465-8.545
									c-13.594-3.41-27.24-7.392-39.852-13.53C244.586,396.181,245.194,395.16,245.886,395.497L245.886,395.497z"/>
							</g>
						</g>
					</g>
					<g>
						<g>
							<g>
								<g>
									<g>
										<g>
											<path style="fill:#4B547A;" d="M188.488,392.611c2.366,5.368,9.46,23.586,1.71,33.638
												c-11.994-7.905-16.629-17.644-8.59-28.078C183.461,395.766,185.837,393.958,188.488,392.611z"/>
										</g>
									</g>
								</g>
							</g>
						</g>
					</g>
					<g>
						<g>
							<g>
								<g>
									<g>
										<g>
											<g>
												<g>
													<path style="fill:#4B547A;" d="M325.587,423.178c0.066,0.477,0.115,0.97,0.169,1.483
														c-0.491-0.03-1.003-0.055-1.517-0.089c-12.299-0.818-30.676-3.598-51.893-7.929
														c-20.924-4.265-45.433-10.404-49.805-13.777c-2.353-1.822-3.366-3.6-2.976-5.266c0.566-2.505,4.049-3.795,5.663-4.262
														c0.423-0.123,0.857,0.118,0.952,0.544c0.09,0.373-0.134,0.762-0.507,0.87c-1.601,0.474-4.285,1.576-4.642,3.168
														c-0.304,1.329,1.163,2.792,2.445,3.78c3.521,2.724,24.208,8.396,49.183,13.494c16.875,3.441,37.386,6.909,51.416,7.873
														l0.003,0.01C324.591,423.11,325.092,423.138,325.587,423.178z"/>
												</g>
											</g>
										</g>
									</g>
								</g>
							</g>
						</g>
					</g>
				</g>
				<g>
					<g>
						<g>
							<path d="M347.485,311.041l-34.884,62.289c0,0,3.168,46.176,11.796,46.943c8.628,0.767,24.531-31.324,24.531-31.324
								L347.485,311.041z"/>
						</g>
					</g>
					<g>
						<g>
							<g>
								<path style="fill:#4B547A;" d="M315.924,368.765c-4.805,8.097-10.319,15.749-15.124,23.845
									c-0.359,0.604-1.305,0.055-0.944-0.552c4.805-8.096,10.319-15.749,15.125-23.845
									C315.339,367.609,316.285,368.158,315.924,368.765L315.924,368.765z"/>
							</g>
						</g>
					</g>
					<g>
						<g>
							<g>
								<path style="fill:#4B547A;" d="M336.593,358.486c-4.016,18.068-6.798,36.371-8.324,54.805c-0.062,0.754-1.265,0.76-1.202,0
									c1.535-18.539,4.328-36.95,8.367-55.12C335.599,357.427,336.758,357.742,336.593,358.486L336.593,358.486z"/>
							</g>
						</g>
					</g>
					<g>
						<g>
							<g>
								<path style="fill:#4B547A;" d="M331.695,376.293c-0.415-1.11-0.83-2.221-1.245-3.331c-0.268-0.716,0.894-1.024,1.159-0.314
									c0.415,1.11,0.83,2.221,1.245,3.331C333.122,376.695,331.961,377.004,331.695,376.293L331.695,376.293z"/>
							</g>
						</g>
					</g>
					<g>
						<path style="fill:#CF6A53;" d="M349.118,422.76c0,0-8.523,15.224-7.108,15.749c5.161,1.913,15.628,14.849,9.786,16.431
							c0,0-30.788,1.582-33.286,0c-2.498-1.582,13.153-32.179,13.153-32.179H349.118z"/>
					</g>
					<g>
						<path style="fill:#9B4937;" d="M349.407,443.742c-1.693-3.002-4.154-5.007-7.181-6.557c0.042,0.16,0.084,0.32,0.126,0.48
							c0.561-1.291,1.237-2.533,1.872-3.789c0.203-0.402-0.401-0.757-0.606-0.354c-0.636,1.256-1.311,2.497-1.872,3.789
							c-0.072,0.166-0.058,0.385,0.126,0.48c2.922,1.496,5.295,3.407,6.93,6.306C349.023,444.489,349.63,444.136,349.407,443.742
							L349.407,443.742z"/>
					</g>
					<g>
						<g>
							<g>
								<g>
									<g>
										<g>
											<g>
												<path d="M324.397,426.416c2.703,1.578,5.556,2.893,8.462,4.081c3.804,1.562,7.677,3.035,11.806,3.361
													c2.148-2.709,5.198-7.022,9.044-13.617c0.337-0.573,0.673-1.162,1.02-1.773c1.822-3.203,3.803-6.896,5.941-11.145
													c3.227-6.422,6.806-14.112,10.684-23.295c11.176-26.456,16.513-55.327,12.923-72.989
													c-2.42-11.919-8.911-18.725-20.412-16.226c-2.025,0.436-3.889,1.231-5.599,2.277
													c-11.443,7.021-14.061,25.146-14.061,25.146c-9.899,30.701-6.838,47.853-7.751,64.279
													c-0.038,0.684-0.085,1.362-0.134,2.035c-0.037,0.437-0.08,0.879-0.128,1.32c-0.267,2.509-0.753,5.16-1.389,7.842
													c-2.137,9.094-5.962,18.672-8.761,25.047c-0.192,0.442-0.385,0.873-0.566,1.284
													C325.086,424.912,324.723,425.706,324.397,426.416z"/>
											</g>
										</g>
									</g>
								</g>
							</g>
						</g>
					</g>
					<g>
						<g>
							<g>
								<g>
									<g>
										<g>
											<g>
												<path style="fill:#4B547A;" d="M325.476,424.044c0.978,0.705,2.019,1.362,3.088,1.967
													c0.406,0.237,0.817,0.458,1.234,0.673c7.169,3.74,15.209,5.36,15.658,5.449c0.043,0.011,0.091,0.016,0.134,0.016
													c0.326,0,0.614-0.226,0.678-0.552c0.075-0.368-0.171-0.726-0.54-0.8c-0.107-0.021-8.296-1.667-15.401-5.386
													c-0.417-0.221-0.834-0.447-1.24-0.679c-1.063-0.605-2.089-1.262-3.045-1.972
													C325.85,423.202,325.658,423.634,325.476,424.044z"/>
											</g>
										</g>
									</g>
								</g>
							</g>
						</g>
					</g>
					<g>
						<g>
							<g>
								<g>
									<g>
										<g>
											<path style="fill:#4B547A;" d="M384.277,311.041c-16.004-0.748-23.12-8.915-26.006-13.949
												c1.707-1.047,3.569-1.84,5.595-2.279C375.368,292.315,381.856,299.121,384.277,311.041z"/>
										</g>
									</g>
								</g>
							</g>
						</g>
					</g>
					<g>
						<g>
							<g>
								<g>
									<g>
										<g>
											<g>
												<g>
													<path style="fill:#4B547A;" d="M328.564,426.011c0.406,0.237,0.817,0.458,1.234,0.673
														c0.176-0.41,0.353-0.836,0.529-1.273c4.231-10.441,9.274-27.545,14.066-47.926c4.482-19.072,8.761-41.852,7.565-46.796
														c-0.646-2.672-1.774-4.197-3.355-4.534c-2.366-0.5-4.835,1.893-5.871,3.056c-0.267,0.305-0.225,0.762,0.101,1.004
														c0.128,0.095,0.278,0.142,0.427,0.142c0.193,0,0.385-0.079,0.518-0.232c1.026-1.142,3.018-2.94,4.53-2.625
														c1.255,0.268,1.934,2.056,2.286,3.503c0.967,3.992-2.217,23.406-7.565,46.17c-3.793,16.131-9.119,35.592-13.943,47.558
														C328.911,425.17,328.735,425.595,328.564,426.011z"/>
												</g>
											</g>
										</g>
									</g>
								</g>
							</g>
						</g>
					</g>
				</g>
			</g>
			<g>
				<path style="fill:#CF6A53;" d="M250.129,299.232c1.541-0.22,5.762,7.272,6.177,8.772c2.022,7.318,12.489,39.817,16.511,45.255
					c4.596,6.214,53.428,10.968,53.428,10.968l-0.684,8.484c0,0-57.668,10.853-70.352-4.003
					c-12.684-14.856-27.117-50.364-25.176-61.537C231.781,297.115,241.884,300.409,250.129,299.232z"/>
				<g>
					<path style="fill:#9B4937;" d="M273.032,353.994c-3.411,1.504-6.251,3.982-8.204,7.158c-0.255,0.414-0.939,0.08-0.682-0.338
						c2.068-3.363,5.03-5.947,8.643-7.541C273.237,353.075,273.477,353.797,273.032,353.994L273.032,353.994z"/>
				</g>
				<g>
					<path style="fill:#9B4937;" d="M270.068,355.409c-2.172,0.154-4.101,1.048-5.614,2.614c-0.34,0.352-0.915-0.147-0.574-0.5
						c1.656-1.714,3.768-2.705,6.145-2.874C270.514,354.615,270.558,355.375,270.068,355.409L270.068,355.409z"/>
				</g>
				<path style="fill:#9B4937;" d="M334.415,373.455c0,0,6.61,5.383,5.416,7.534c-1.195,2.15-9.927-6.568-9.927-6.568
					L334.415,373.455z"/>
				<path style="fill:#CF6A53;" d="M326.245,364.226c5.04,0.528,10.558,2.981,16.186,5.874c0,0,4.352,2.068,6.903,5.807
					c3.43,5.025,6.09,7.535,4.961,9.316c-0.884,1.395-5.754-2.825-7.123-5.059s-8.722-3.793-11.41-4.07
					c-2.689-0.277-8.579,1.443-11.036-2.066C322.27,370.517,326.245,364.226,326.245,364.226z"/>
				<path style="fill:#CF6A53;" d="M344.102,374.93c0,0,8.372,9.839,4.13,9.909c-2.074,0.034-3.502-4.951-8.413-8.318
					C337.508,374.936,344.102,374.93,344.102,374.93z"/>
			</g>
			<g>
				<path style="fill:#518E4B;" d="M254.68,288.751l9.424,23.931c0,0-21.38,13.547-33.503,9.003c0,0-3.961-23.05,0.883-34.555
					c2.986-7.092,9.438-10.612,15.337-8.541C251.501,280.232,252.504,284.292,254.68,288.751z"/>
			</g>
			<g>
				<path style="fill:#6CBE64;" d="M245.063,278.139c-0.48,4.215-2.123,8.286-4.835,11.618c-2.526,3.103-5.897,5.417-9.625,6.776
					c-0.003-0.266-0.003-0.533,0.002-0.801c3.397-1.286,6.472-3.402,8.849-6.206c2.75-3.242,4.402-7.293,4.875-11.481
					c0.159-1.404,0.184-2.824,0.072-4.235c0.236-0.144,0.473-0.284,0.709-0.418C245.262,274.974,245.242,276.566,245.063,278.139z"
					/>
			</g>
			<g>
				<path style="fill:#6CBE64;" d="M257.198,295.026c-10.21,1.311-17.984,9.851-18.274,20.157c-0.014,0.48,0.733,0.48,0.747,0
					c0.277-9.861,7.73-18.152,17.527-19.41C257.668,295.712,257.674,294.965,257.198,295.026L257.198,295.026z"/>
			</g>
			<g>
				<path d="M261.652,306.128c-1.762,1.789-4.064,3.02-6.312,4.09c-2.543,1.21-5.201,2.2-7.897,3.011
					c-5.523,1.663-11.236,2.403-16.987,2.652c-0.479,0.021-0.481,0.767,0,0.746c5.96-0.258,11.885-1.04,17.598-2.805
					c2.614-0.807,5.191-1.785,7.662-2.96c2.307-1.098,4.654-2.37,6.463-4.206C262.518,306.313,261.99,305.785,261.652,306.128
					L261.652,306.128z"/>
			</g>
			<g>
				<path d="M258.884,316.333c2.138-0.852,4.173-1.891,6.115-3.128c0.184-0.117,0.219-0.32,0.134-0.511
					c-3.779-8.527-7.441-17.105-10.984-25.733c-0.18-0.438-0.903-0.246-0.72,0.199c3.567,8.688,7.253,17.326,11.059,25.911
					c0.045-0.17,0.089-0.341,0.134-0.511c-1.887,1.202-3.857,2.225-5.936,3.053C258.244,315.789,258.436,316.511,258.884,316.333
					L258.884,316.333z"/>
			</g>
			<g>
				<g>
					
						<rect x="386.976" y="283.117" transform="matrix(0.974 0.2267 -0.2267 0.974 78.6257 -83.8243)" style="fill:#00002B;" width="34.589" height="34.589"/>
				</g>
				<g>
					
						<rect x="375.151" y="280.365" transform="matrix(0.2267 -0.974 0.974 0.2267 13.5711 612.4106)" style="fill:#584CDC;" width="34.589" height="34.589"/>
				</g>
				<g>
					
						<rect x="378.386" y="283.599" transform="matrix(0.2267 -0.974 0.974 0.2267 13.5708 612.4103)" style="fill:#F8F7E9;" width="28.119" height="28.119"/>
				</g>
				<g>
					<path d="M392.485,294.187c0.239-0.201,0.54-0.414,0.903-0.64c0.362-0.225,0.775-0.413,1.238-0.562
						c0.462-0.149,0.957-0.253,1.484-0.312c0.527-0.059,1.084-0.02,1.673,0.117c2.11,0.491,3.497,1.632,4.16,3.422
						c0.663,1.79,0.667,4.096,0.011,6.916c-0.656,2.82-1.678,4.887-3.063,6.2c-1.386,1.314-3.134,1.725-5.244,1.234
						c-0.589-0.137-1.106-0.349-1.553-0.634c-0.447-0.285-0.845-0.598-1.194-0.936c-0.349-0.338-0.637-0.688-0.862-1.051
						c-0.226-0.362-0.401-0.687-0.527-0.973l-0.482,2.069l-8.338-1.941l1.162-4.991l1.339,0.312l3.187-13.694l-1.339-0.312
						l1.162-4.991l8.338,1.941L392.485,294.187z M394.881,299.878c0.161-0.69,0.129-1.221-0.094-1.594
						c-0.224-0.373-0.629-0.628-1.217-0.765c-0.589-0.137-1.065-0.088-1.43,0.148c-0.365,0.236-0.628,0.699-0.788,1.388
						l-0.708,3.043c-0.161,0.69-0.129,1.221,0.094,1.594c0.223,0.373,0.629,0.628,1.217,0.765c0.588,0.137,1.065,0.088,1.43-0.148
						c0.365-0.236,0.628-0.699,0.788-1.388L394.881,299.878z"/>
				</g>
			</g>
			<g>
				<g>
					<g>
						<g>
							<path style="fill:#CF6A53;" d="M414.548,317.842c0,0-3.765-8.471-6.119-8.908c-2.354-0.436,0.228,8.657,0.228,8.657
								s-2.352-4.946-4.14-5.589c-1.788-0.643-0.547,6.358-0.547,6.358s-1.967-3.779-3.868-3.133
								c-1.226,0.416-0.227,2.5,0.262,4.532c0.488,2.032,0.81,3.992,1.888,4.341c1.078,0.349,2.589-1.197,2.589-1.197
								s3.122,2.311,4.363,1.818c1.241-0.493,1.6-1.75,1.6-1.75s0.985,1.344,2.672,1.143c1.688-0.201,2.195-1.331,2.195-1.331
								s3.278-0.113,5.02-0.507c1.742-0.394,1.564-3.74,1.683-5.882c0.118-2.143-4.782-3.379-6.78-5.791
								c0,0-1.559-0.952-1.834,1.067c-0.276,2.018,2.911,4.397,3.205,5.119C417.259,317.514,414.548,317.842,414.548,317.842z"/>
						</g>
					</g>
				</g>
			</g>
		</g>
		<g>
			<g>
				<path style="fill:#DC8D30;" d="M170.561,232.96c0,13.387,10.855,24.242,24.242,24.242c5.229,0,10.074-1.656,14.035-4.474
					l14.372,2.858l-6.962-11.317c1.787-3.377,2.797-7.226,2.797-11.31c0-13.389-10.853-24.242-24.242-24.242
					C181.416,208.718,170.561,219.571,170.561,232.96z"/>
			</g>
			<g>
				<path d="M191.248,233.693c0,1.915,1.552,3.467,3.467,3.467s3.467-1.552,3.467-3.467c0-1.915-1.552-3.467-3.467-3.467
					S191.248,231.778,191.248,233.693z"/>
				<g>
					<path d="M201.699,233.693c0,1.915,1.552,3.467,3.467,3.467c1.915,0,3.467-1.552,3.467-3.467c0-1.915-1.552-3.467-3.467-3.467
						C203.251,230.226,201.699,231.778,201.699,233.693z"/>
					<path d="M180.797,233.693c0,1.915,1.552,3.467,3.467,3.467s3.467-1.552,3.467-3.467c0-1.915-1.552-3.467-3.467-3.467
						S180.797,231.778,180.797,233.693z"/>
				</g>
			</g>
		</g>
		<g>
			<path style="fill:#EEDDD2;" d="M259.734,268.869c3.034,7.572,7.993,14.322,14.493,19.281c2.924,2.231,6.684,4.324,10.409,2.796
				c3.663-1.503,3.97-5.266,3.359-8.712c-0.918-5.182-2.641-10.207-4.982-14.915c-0.214-0.43-0.858-0.053-0.645,0.377
				c1.81,3.641,3.227,7.461,4.198,11.411c0.855,3.478,2.314,8.739-1.638,10.879c-3.75,2.031-7.785-0.477-10.725-2.79
				c-2.84-2.234-5.395-4.833-7.596-7.697c-2.541-3.306-4.603-6.959-6.154-10.828C260.277,268.23,259.555,268.422,259.734,268.869
				L259.734,268.869z"/>
		</g>
	</g>
	<g>
		<ellipse cx="565.366" cy="450.624" rx="75.632" ry="8.516"/>
		<g>
			<g>
				<g>
					<path style="fill:#CB6A53;" d="M577.379,379.954c0,0-1.61,11.302,1.509,22.845c0.445,1.651,0.988,3.309,1.648,4.938
						c3.52,8.701,6.905,26.125,6.905,26.125s-1.992,4.407,1.594,3.492c3.583-0.915,12.085-3.492,12.085-3.492
						s-0.941-17.484-1.717-32.985c-0.486-9.677-0.909-18.58-0.998-21.977c-0.231-8.84,0-28.269,0-28.269l-29.023,1.329
						L577.379,379.954z"/>
				</g>
				<g>
					<path style="fill:#584CDC;" d="M601.119,433.862c0,0-1.498,0.451-3.501,1.044c-0.223,0.065-0.451,0.134-0.686,0.204
						c-0.42,0.122-0.859,0.252-1.303,0.382c-0.317,0.096-0.641,0.192-0.972,0.29c-2.093,0.607-4.228,1.214-5.62,1.569
						c-3.588,0.917-1.596-3.489-1.596-3.489s-1.005-5.2-2.496-11.337c-0.084-0.348-0.17-0.701-0.259-1.053
						c-0.182-0.737-0.37-1.481-0.564-2.227c-0.106-0.384-0.204-0.768-0.31-1.154c-0.218-0.823-0.444-1.646-0.672-2.457
						c-0.07-0.245-0.139-0.487-0.209-0.727c-0.254-0.89-0.516-1.761-0.782-2.606c-0.101-0.307-0.199-0.61-0.298-0.912
						c-0.379-1.171-0.773-2.273-1.164-3.268c-0.05-0.13-0.101-0.257-0.151-0.382c-0.072-0.178-0.142-0.353-0.211-0.533
						c-0.566-1.457-1.037-2.935-1.438-4.408l10.07-0.943l0.986-0.091l9.458-0.888c0.055,1.085,0.11,2.177,0.168,3.273
						c0.022,0.406,0.041,0.814,0.062,1.219c0.002,0.089,0.01,0.18,0.012,0.269c0.017,0.314,0.031,0.626,0.05,0.941
						c0.12,2.407,0.242,4.804,0.362,7.123c0.014,0.307,0.031,0.614,0.048,0.919c0.05,1.008,0.103,2.001,0.154,2.969
						c0.012,0.24,0.024,0.478,0.036,0.715c0.086,1.617,0.168,3.163,0.245,4.61c0.022,0.391,0.043,0.77,0.062,1.142v0.002
						c0,0.022,0.003,0.043,0.003,0.065c0.017,0.281,0.031,0.559,0.045,0.83C600.927,430.294,601.119,433.862,601.119,433.862z"/>
				</g>
				<g>
					<path style="fill:#3C32A1;" d="M600.104,414.619c-2.652-1.773-4.586-4.596-5.152-7.979c-0.074-0.454,0.619-0.646,0.694-0.19
						c0.506,3.033,2.143,5.57,4.411,7.25C600.07,414.007,600.087,414.314,600.104,414.619z"/>
				</g>
				<g>
					<path style="fill:#3C32A1;" d="M588.215,406.901c-0.444,3.619-2.323,6.717-5.076,8.733c-0.07-0.245-0.139-0.487-0.209-0.727
						c2.467-1.896,4.164-4.737,4.564-8.006C587.553,406.447,588.273,406.443,588.215,406.901z"/>
				</g>
				<g>
					<path style="fill:#3C32A1;" d="M586.055,420.678c-0.415,0.598-0.787,1.214-1.111,1.848c-0.084-0.348-0.17-0.701-0.259-1.053
						c2.789-4.488,8.018-8.726,6.331-14.437c-0.132-0.444,0.562-0.634,0.694-0.19C593.32,412.293,588.885,416.608,586.055,420.678z"
						/>
				</g>
				<g>
					<path style="fill:#3C32A1;" d="M592.336,423.042c-2.409,3.715-2.095,8.728,0.499,12.251c0.274,0.372-0.35,0.732-0.622,0.362
						c-2.81-3.813-3.036-9.33-0.31-13.261c1.925-2.774,5.059-4.48,8.354-4.807c0.012,0.24,0.024,0.478,0.036,0.715
						C597.121,418.629,594.1,420.325,592.336,423.042z"/>
				</g>
				<g>
					<path style="fill:#3C32A1;" d="M597.61,428.677c-0.823,2.011-0.766,4.252,0.007,6.23c-0.223,0.065-0.451,0.134-0.686,0.204
						c-0.797-2.066-0.878-4.392-0.067-6.511c0.72-1.879,2.064-3.436,3.739-4.478c0.017,0.281,0.031,0.559,0.045,0.83
						C599.314,425.864,598.239,427.138,597.61,428.677z"/>
				</g>
				<g>
					<path style="fill:#F8F7E9;" d="M599.694,406.577c-6.335,0.516-12.669,1.029-19.007,1.542c-0.05-0.129-0.101-0.255-0.151-0.381
						c-0.072-0.176-0.142-0.352-0.211-0.532c6.442-0.522,12.88-1.045,19.318-1.57C599.66,405.951,599.675,406.262,599.694,406.577z"
						/>
				</g>
				<g>
					<g>
						<path style="fill:#65272B;" d="M598.132,379.539c-2.275,2.441-5.695,3.341-8.878,2.333c-0.579-0.183-0.332-1.098,0.252-0.913
							c2.879,0.911,5.896,0.121,7.956-2.09C597.879,378.423,598.548,379.094,598.132,379.539L598.132,379.539z"/>
					</g>
				</g>
				<g>
					<g>
						<g>
							<g>
								<g>
									<g>
										<g>
											<path style="fill:#DC8D30;" d="M611.051,451.428h-27.042c0,0,0.912-14.076,2.164-17.425
												c1.252-3.349,2.861,3.351,2.861,3.351s2.532-5.229,6.923-5.529c1.711-0.117,3.429,0.263,4.182,1.998
												c0.326-0.689,0.798-1.364,1.34-1.172c1.022,0.363,1.406,7.045,1.414,7.203c1.164,1.214,2.759,2.604,4.115,2.794
												C610.162,443.094,612.652,446.472,611.051,451.428z"/>
										</g>
									</g>
								</g>
							</g>
						</g>
					</g>
					<g>
						<g>
							<g>
								<g>
									<g>
										<g>
											<g>
												<path d="M593.235,437.947c1.925-2.401,5.149-2.98,7.735-1.262c0.349,0.232,0.022,0.798-0.33,0.564
													c-2.359-1.567-5.194-1.023-6.943,1.16C593.434,438.737,592.974,438.272,593.235,437.947L593.235,437.947z"/>
											</g>
										</g>
									</g>
								</g>
							</g>
						</g>
					</g>
					<g>
						<g>
							<g>
								<g>
									<g>
										<g>
											<g>
												<path d="M593.764,440.094c1.925-2.401,5.149-2.98,7.735-1.262c0.349,0.232,0.022,0.798-0.33,0.564
													c-2.359-1.567-5.194-1.023-6.943,1.159C593.963,440.884,593.503,440.419,593.764,440.094L593.764,440.094z"/>
											</g>
										</g>
									</g>
								</g>
							</g>
						</g>
					</g>
					<g>
						<g>
							<g>
								<g>
									<g>
										<g>
											<g>
												<path d="M594.902,442.64c1.665-2.339,4.537-3.116,6.93-1.328c0.333,0.249,0.008,0.816-0.33,0.564
													c-2.087-1.559-4.568-0.97-6.036,1.094C595.224,443.31,594.658,442.984,594.902,442.64L594.902,442.64z"/>
											</g>
										</g>
									</g>
								</g>
							</g>
						</g>
					</g>
					<g>
						<g>
							<g>
								<g>
									<g>
										<g>
											<g>
												<path style="fill:#F8F7E9;" d="M585.449,438.27c2.28,2.726,2.156,6.257,1.772,9.598c-0.047,0.413-0.701,0.418-0.654,0
													c0.359-3.129,0.57-6.564-1.581-9.136C584.719,438.411,585.179,437.947,585.449,438.27L585.449,438.27z"/>
											</g>
										</g>
									</g>
								</g>
							</g>
						</g>
					</g>
					<g>
						<g>
							<g>
								<g>
									<g>
										<g>
											<g>
												<path style="fill:#F8F7E9;" d="M584.615,447.756c8.59,0.09,17.179,0.179,25.769,0.269c0.42,0.004,0.421,0.658,0,0.654
													c-8.589-0.09-17.179-0.179-25.769-0.269C584.195,448.405,584.194,447.751,584.615,447.756L584.615,447.756z"/>
											</g>
										</g>
									</g>
								</g>
							</g>
						</g>
					</g>
				</g>
			</g>
			<g>
				<g>
					<g>
						<g>
							<g>
								<g>
									<g>
										<path style="fill:#CB6A53;" d="M535.524,350.631l2.021,50.788l1.436,36.06l12.379-0.461c0,0,7.11-27.101,8.432-34.529
											c0.028-0.155,0.054-0.3,0.076-0.436c1.105-6.737-0.89-24.625-0.89-24.625l1.784-25.468L535.524,350.631z"/>
									</g>
									<g>
										<path style="fill:#584CDC;" d="M559.795,402.49c-0.178,0.996-0.463,2.349-0.818,3.945
											c-0.067,0.302-0.139,0.614-0.209,0.934c-0.346,1.514-0.746,3.208-1.174,4.994c-0.082,0.348-0.166,0.696-0.252,1.049
											c-0.062,0.264-0.127,0.528-0.192,0.794c-0.07,0.288-0.139,0.576-0.209,0.866c-0.434,1.776-0.89,3.6-1.346,5.404
											c-0.086,0.355-0.175,0.71-0.264,1.065c-0.259,1.032-0.516,2.049-0.77,3.045c0,0.002,0,0.002,0,0.002
											c-0.074,0.302-0.151,0.602-0.228,0.9c-1.627,6.403-2.973,11.529-2.973,11.529l-1.198,0.046l-0.945,0.034l-3.115,0.115
											l-0.715,0.026l-6.405,0.24l-0.346-8.74l-0.029-0.715l-0.118-2.947l-0.041-0.989l-0.175-4.37l-0.029-0.706l-0.07-1.723
											l-0.038-1.008l-0.024-0.617l-0.031-0.739l-0.151-3.813l-0.038-0.989l-0.154-3.847l-0.038-0.945l-0.154-3.912l6.448,0.307
											l0.946,0.048l6.335,0.305l0.97,0.048L559.795,402.49z"/>
									</g>
									<g>
										<path style="fill:#3C32A1;" d="M557.15,414.206c-0.07,0.288-0.139,0.576-0.209,0.866
											c-1.826-2.105-2.793-4.934-2.479-7.927c0.029-0.286,0.072-0.571,0.125-0.859c0.005-0.029,0.012-0.053,0.024-0.077
											c0.214,0.01,0.425,0.022,0.638,0.031c0.034,0.067,0.048,0.146,0.031,0.238c-0.043,0.235-0.079,0.47-0.106,0.703
											C554.88,409.785,555.65,412.276,557.15,414.206z"/>
									</g>
									<g>
										<path style="fill:#3C32A1;" d="M545.307,406.86c-0.307,4.564-3.415,7.195-7.195,8.805l-0.031-0.739
											c3.434-1.507,6.225-3.928,6.506-8.066C544.618,406.399,545.338,406.399,545.307,406.86z"/>
									</g>
									<g>
										<path style="fill:#3C32A1;" d="M554.561,424.587c0,0.002,0,0.002,0,0.002c-0.074,0.302-0.151,0.602-0.228,0.9
											c-4.108-5.352-5.882-12.354-4.68-19.066c0.079-0.456,0.775-0.262,0.693,0.192
											C549.219,412.917,550.834,419.476,554.561,424.587z"/>
									</g>
									<g>
										<path style="fill:#3C32A1;" d="M551.345,436.502c0.005,0.466-0.715,0.463-0.72,0c-0.065-4.581-0.898-9.393-3.977-12.971
											c-2.109-2.455-5.243-3.998-8.375-3.813l-0.029-0.706c3.086-0.18,6.196,1.161,8.414,3.46
											C550.263,426.21,551.275,431.487,551.345,436.502z"/>
									</g>
									<g>
										<path style="fill:#3C32A1;" d="M546.101,437.213l-0.715,0.026c-0.216-1.893-0.763-3.729-1.881-5.325
											c-1.164-1.661-2.94-2.87-4.869-3.175l-0.029-0.715c1.797,0.23,3.501,1.152,4.771,2.575
											C545.045,432.464,545.828,434.796,546.101,437.213z"/>
									</g>
									<g>
										<path style="fill:#F8F7E9;" d="M558.976,406.435c-0.067,0.302-0.139,0.614-0.209,0.934
											c-1.198-0.062-2.395-0.125-3.593-0.187c-0.238-0.012-0.475-0.024-0.713-0.036c-5.575-0.29-11.152-0.581-16.724-0.869
											l-0.038-0.945c5.635,0.293,11.272,0.586,16.911,0.878c0.214,0.01,0.425,0.022,0.638,0.031
											C556.492,406.306,557.733,406.371,558.976,406.435z"/>
									</g>
									<g>
										<g>
											<g>
												<g>
													<g>
														<g>
															<g>
																<path style="fill:#DC8D30;" d="M516.604,448.655c0.029,0.223,0.063,0.444,0.1,0.664
																	c0.132,0.725,0.324,1.438,0.544,2.108h35.315c0,0,1.693-15.532,1.956-18.193c0.261-2.664-3.955,0.664-3.955,0.664
																	l-6.433,0.773c0,0-1.91-2.36-4.336-1.555c-2.423,0.808-5.596,4.774-5.596,4.774s-9.855,2.755-13.292,3.672
																	C516.997,442.606,516.226,445.662,516.604,448.655z"/>
															</g>
														</g>
													</g>
												</g>
											</g>
										</g>
										<g>
											<g>
												<g>
													<g>
														<g>
															<g>
																<g>
																	<path style="fill:#F8F7E9;" d="M553.653,439.128c-3.248,1.836-5.13,5.502-3.502,9.088
																		c0.175,0.387-0.398,0.726-0.575,0.336c-1.779-3.921,0.148-7.968,3.741-9.999
																		C553.691,438.342,554.027,438.917,553.653,439.128L553.653,439.128z"/>
																</g>
															</g>
														</g>
													</g>
												</g>
											</g>
										</g>
										<g>
											<g>
												<g>
													<g>
														<g>
															<g>
																<g>
																	<path style="fill:#F8F7E9;" d="M516.604,448.655c0.029,0.223,0.063,0.444,0.1,0.664
																		c0.616-0.006,1.232-0.014,1.847-0.02c11.305-0.117,22.609-0.235,33.914-0.352c0.43-0.006,0.43-0.673,0-0.667
																		c-2.586,0.029-5.173,0.054-7.759,0.08C535.338,448.461,525.973,448.558,516.604,448.655z"/>
																</g>
															</g>
														</g>
													</g>
												</g>
											</g>
										</g>
										<g>
											<g>
												<g>
													<g>
														<g>
															<g>
																<g>
																	<path d="M535.725,440.596c-1.497-2.104-4.026-2.701-6.15-1.114c-0.343,0.257-0.676-0.321-0.336-0.575
																		c2.437-1.821,5.365-1.03,7.061,1.353C536.548,440.61,535.971,440.943,535.725,440.596L535.725,440.596z"/>
																</g>
															</g>
														</g>
													</g>
												</g>
											</g>
										</g>
										<g>
											<g>
												<g>
													<g>
														<g>
															<g>
																<g>
																	<path d="M532.016,441.715c-1.497-2.104-4.026-2.701-6.15-1.114c-0.343,0.257-0.676-0.321-0.336-0.575
																		c2.437-1.821,5.365-1.03,7.061,1.353C532.84,441.729,532.263,442.062,532.016,441.715L532.016,441.715z"/>
																</g>
															</g>
														</g>
													</g>
												</g>
											</g>
										</g>
										<g>
											<g>
												<g>
													<g>
														<g>
															<g>
																<g>
																	<path d="M528.186,442.835c-1.497-2.104-4.026-2.701-6.15-1.114c-0.343,0.257-0.676-0.321-0.336-0.575
																		c2.437-1.822,5.365-1.03,7.061,1.353C529.01,442.849,528.433,443.181,528.186,442.835L528.186,442.835z"/>
																</g>
															</g>
														</g>
													</g>
												</g>
											</g>
										</g>
									</g>
									<g>
										<g>
											<path style="fill:#65272B;" d="M537.351,380.867c2.821,1.459,6.075,1.313,8.77-0.355c0.52-0.322,0.996,0.497,0.478,0.818
												c-2.987,1.849-6.611,1.967-9.727,0.355C536.332,381.404,536.81,380.587,537.351,380.867L537.351,380.867z"/>
										</g>
									</g>
								</g>
							</g>
						</g>
					</g>
				</g>
			</g>
			<g>
				<g>
					<g>
						<g>
							<g>
								<path style="fill:#963429;" d="M448.736,173.302c0,0-2.6,2-2.06,3.44c0.54,1.44,6.19,2.885,7.45,2.44
									c1.26-0.445-1.191-2.94-1.191-2.94L448.736,173.302z"/>
								<path style="fill:#C01C27;" d="M544.607,195.838c-17.497-1.697-29.386-4.005-29.386-4.005
									c-4.434-1.928-10.387,20.117-5.018,22.014c6.876,3.714,16.56,6.399,26.538,10.192
									C539.448,218.345,542.814,201.883,544.607,195.838z"/>
								<g>
									<path style="fill:#EEDDD2;" d="M521.23,193.776c1.679,7.664-0.429,15.867-5.599,21.77c-0.315,0.36,0.211,0.89,0.528,0.528
										c5.353-6.112,7.529-14.559,5.791-22.496C521.847,193.108,521.127,193.307,521.23,193.776L521.23,193.776z"/>
								</g>
								<path d="M517.045,196.8c-0.038,1.301-0.242,2.852-0.645,4.662c-0.005,0.026-0.012,0.052-0.017,0.078
									c-0.094,0.426-0.2,0.866-0.318,1.318c-0.654,2.52-1.473,4.784-2.342,6.594c-1.44,3.008-3.012,4.756-4.172,4.332
									c-1.035-0.379-1.523-2.41-1.447-5.3c0.005-0.181,0.012-0.367,0.021-0.555c0.106-2.184,0.508-4.796,1.217-7.528
									c0.572-2.207,1.2-3.961,1.857-5.3c0.322-0.661,0.652-1.219,0.984-1.68c1.038-1.447,2.094-1.935,3.038-1.589
									c0.897,0.329,1.532,1.348,1.748,3.073C517.04,195.463,517.068,196.094,517.045,196.8z"/>
								<path style="fill:#CB6A53;" d="M517.045,196.8c-0.038,1.301-0.242,2.852-0.645,4.662c-0.005,0.026-0.012,0.052-0.017,0.078
									c-0.014,0.056-0.028,0.115-0.042,0.172c-0.675,2.784-1.523,5.283-2.422,7.281c-1.527-0.301-3.537-0.652-5.794-1.064
									c-0.007-0.002-0.014-0.002-0.021-0.005c-5.9-1.076-13.485-2.575-18.598-4.69c-13.306-5.502-28.598-18.309-28.598-18.309
									l1.031-7.566c0,0,24.27,7.51,31.382,10.056c2.37,0.847,10.625,3.443,17.984,5.733c0.294,0.092,0.588,0.183,0.878,0.273
									c1.687,0.525,3.311,1.026,4.787,1.485C517.04,195.463,517.068,196.094,517.045,196.8z"/>
								<g>
									<path style="fill:#963429;" d="M494.251,190.85c-0.39,2.811-1.426,5.345-3.124,7.62c-0.363,0.487,0.379,1.07,0.743,0.582
										c1.788-2.398,2.905-5.112,3.316-8.075C495.27,190.376,494.335,190.248,494.251,190.85L494.251,190.85z"/>
								</g>
								<g>
									<g>
										<path style="fill:#CB6A53;" d="M464.274,186.396c0,0-6.958,1.199-9.55,0.138c-2.593-1.061-6.335-2.905-7.028-5.593
											c-0.693-2.688,1.348-1.666,2.875-0.855c1.527,0.81,4.476,2.202,4.63-0.404c0.154-2.606-6.046-4.094-8.603-5.504
											c-2.556-1.41-6.494-0.453-7.073-2.253c-0.578-1.8,7.259-1.605,10.058-0.883c2.799,0.723,16.869,8.151,16.869,8.151
											L464.274,186.396z"/>
									</g>
								</g>
								<path d="M607.69,355.595c0,0-1.888,1.372-8.031,2.665c-0.296,0.063-0.604,0.126-0.922,0.186
									c-2.659,0.519-6.036,1.013-10.287,1.388c-0.315,0.028-0.633,0.053-0.957,0.082c-5.875,0.472-13.342,0.714-22.786,0.491
									c-6.184-0.145-11.596-0.45-16.31-0.853c-0.324-0.025-0.642-0.053-0.96-0.082c-2.118-0.192-4.088-0.4-5.919-0.623
									c-0.365-0.044-0.721-0.088-1.073-0.132c-14.639-1.872-19.982-4.538-19.982-4.538l1.869-10.139l0.173-0.935l2.137-11.587
									l0.176-0.96l3.786-20.527l0.179-0.985l6.036-32.727l67.657,2.219l1.425,21.074l0.066,0.963l1.702,25.181v0.003l0.11,1.614
									v0.003L607.69,355.595z"/>
								<g>
									<path style="fill:#4B547A;" d="M603.967,300.576c-3.921,1.328-8.053,1.636-12.241,0.019
										c-8.638-3.332-12.864-12.178-16.436-20.074c-0.249-0.548,0.563-1.029,0.815-0.475c3.452,7.631,7.508,16.389,15.873,19.639
										c4.085,1.589,8.109,1.256,11.923-0.072L603.967,300.576z"/>
								</g>
								<g>
									<path style="fill:#4B547A;" d="M605.779,327.375c-1.013-1.306-2.118-2.546-3.31-3.701
										c-5.768-5.595-13.201-8.972-20.259-12.6c-6.652-3.424-13.465-7.282-18.173-13.254c-4.141-5.262-6.495-12.081-4.944-18.743
										c0.135-0.592,1.048-0.34,0.909,0.252c-2.093,8.984,3.172,17.547,9.919,23.047c11.137,9.075,26.285,12.251,35.748,23.381
										v0.003L605.779,327.375z"/>
								</g>
								<g>
									<path style="fill:#4B547A;" d="M541.354,303.54c-3.455,3.474-7.98,5.689-12.751,6.492l0.179-0.985
										c4.459-0.815,8.673-2.92,11.904-6.174c5.516-5.557,7.688-13.922,5.809-21.483c-0.148-0.592,0.765-0.84,0.909-0.252
										C549.366,289.021,547.113,297.75,541.354,303.54z"/>
								</g>
								<g>
									<path style="fill:#4B547A;" d="M599.659,358.261c-0.296,0.063-0.604,0.126-0.922,0.186
										c-1.831-7.436-3.949-14.866-7.735-21.553c-3.735-6.605-9.252-12.222-16.351-15.143c-3.26-1.341-6.797-2.055-10.328-1.841
										c-4.144,0.252-7.889,1.948-11.436,4.003c-6.904,4.003-13.774,8.591-22.072,8.616c-2.08,0.006-4.188-0.333-6.174-1.01
										l0.176-0.96c4.365,1.403,9.463,1.095,13.805-0.33c4.254-1.397,8.068-3.688,11.879-5.992
										c3.285-1.989,6.684-3.946,10.466-4.799c6.542-1.47,13.349,0.428,18.897,3.987
										C591.87,331.135,596.364,345.022,599.659,358.261z"/>
								</g>
								<g>
									<path style="fill:#4B547A;" d="M541.518,358.849c-0.365-0.044-0.721-0.088-1.073-0.132
										c-0.787-1.831-1.787-3.575-3.005-5.183c-3.701-4.89-9.176-8.204-15.108-9.494l0.173-0.935
										c6.036,1.309,11.612,4.66,15.454,9.569C539.438,354.566,540.628,356.649,541.518,358.849z"/>
								</g>
								<g>
									<path style="fill:#4B547A;" d="M588.45,359.834c-0.315,0.028-0.633,0.053-0.957,0.082
										c0.485-3.811-0.116-7.735-1.746-11.266c-4.28-9.271-15.347-13.443-24.85-9.957c-8.424,3.09-13.431,12.15-12.499,20.86
										c-0.324-0.025-0.642-0.053-0.96-0.082c-0.459-4.645,0.661-9.381,3.131-13.38c5.583-9.06,17.459-12.024,26.905-7.345
										C585.262,342.605,589.419,351.441,588.45,359.834z"/>
								</g>
								<path style="fill:#C01C27;" d="M575.811,188.565c0,0,11.247,3.242,20.185,7.415c9.531,4.451,2.786,20.069,4.313,32.878
									c1.526,12.808,4.38,49.212,3.451,54.746c-2.088,12.443-73.849,3.983-71.387-2.969c2.396-6.766,4.366-34.418,4.059-41.419
									c-0.279-6.369-0.279-8.585-0.763-17.024c-0.394-6.879-1.448-20.813,5.925-24.838c8.316-4.539,15.631-5.488,15.631-5.488
									L575.811,188.565z"/>
								<g>
									<path d="M536.332,222.919c0.457-5.192,0.914-10.384,1.37-15.575c0.042-0.478-0.705-0.476-0.747,0
										c-0.457,5.192-0.914,10.384-1.37,15.575C535.544,223.397,536.291,223.394,536.332,222.919L536.332,222.919z"/>
								</g>
								<g>
									<path d="M543.088,241.075c11.696,4.338,24.775,3.917,36.191-1.09c0.555-0.243,0.075-1.057-0.477-0.815
										c-11.185,4.906-24.02,5.238-35.464,0.994C542.768,239.954,542.522,240.866,543.088,241.075L543.088,241.075z"/>
								</g>
								<g>
									<path d="M580.059,143.517l4.851,4.864c12.892-7.038,24.661,10.266,24.661,10.266c2.93-1.641,5.07-3.555,6.634-5.511
										l-2.154-3.096l2.98,1.984c1.424-2.059,2.254-4.112,2.732-5.885l-4.568-4.032l4.944,2.353
										c0.375-2.134,0.246-3.562,0.246-3.562C600.275,121.778,580.059,143.517,580.059,143.517z"/>
								</g>
								<g>
									<path d="M576.495,178.295c19.445-10.028,14.907-31.798,3.832-37.085c-6.685-3.191-14.278-1.316-14.278-1.316
										s-11.01-1.748-17.711,9.441c-2.246,3.75,1.471,12.811,1.693,22.976L576.495,178.295z"/>
								</g>
								<g>
									<g>
										<path style="fill:#DC8D30;" d="M581.728,142.283c2.376,0.884,4.153,2.837,4.787,5.295c0.11,0.425,0.786,0.303,0.675-0.126
											c-0.695-2.693-2.615-4.842-5.224-5.813C581.55,141.484,581.313,142.129,581.728,142.283L581.728,142.283z"/>
									</g>
								</g>
								<g>
									<g>
										<g>
											<g>
												<g>
													<path style="fill:#CB6A53;" d="M576.539,188.742c-2.166,9.362-17.101,10.856-19.649,4.339l0.983-3.569l1.83-6.643
														l1.28-4.652l15.139-6.936L576.539,188.742z"/>
												</g>
											</g>
										</g>
										<g>
											<g>
												<g>
													<g>
														<g>
															<g>
																<path d="M572.266,178.743c-7.169,11.123-12.488,11.213-14.393,10.77l1.83-6.643L572.266,178.743z"/>
															</g>
														</g>
													</g>
												</g>
											</g>
										</g>
									</g>
									<g>
										<g>
											<g>
												<g>
													<g>
														<g>
															<path style="fill:#CB6A53;" d="M580.967,168.412c-1.784,4.595-3.258,6.031-7.144,10.307
																c-3.468,3.816-10.099,4.644-13.047,4.757c-7.712,0.297-12.894-3.862-10.49-17.18
																c1.495-8.269-0.399-13.124,2.003-16.157l0.004,0c0.156-0.136,0.312-0.268,0.467-0.396
																c3.754-3.085,8.607-4.51,13.451-4.131C590.284,147.497,583.527,161.818,580.967,168.412z"/>
														</g>
													</g>
												</g>
											</g>
										</g>
									</g>
									<path style="fill:#F8F7E9;" d="M554.62,170.425c0,0,4.318,0.477,6.843,0.529c0,0-0.684,3.858-3.95,3.692
										C554.544,174.495,554.62,170.425,554.62,170.425z"/>
									<g>
										<path d="M562.061,165.368c0.647-1.12,2.188-0.962,2.707,0.17c0.253,0.551,1.123,0.186,0.869-0.369
											c-0.89-1.943-3.404-1.974-4.447-0.166C560.887,165.528,561.761,165.887,562.061,165.368L562.061,165.368z"/>
									</g>
									<g>
										<path d="M553.433,164.357c0.563-1.172,2.17-0.866,2.343,0.385c0.083,0.601,1.018,0.47,0.935-0.133
											c-0.304-2.208-3.197-2.598-4.149-0.617C552.298,164.541,553.17,164.903,553.433,164.357L553.433,164.357z"/>
									</g>
									<g>
										<g>
											<g>
												<g>
													<g>
														<g>
															<g>
																<path d="M558.335,168.921c-0.002,0-0.005-0.001-0.008,0c-0.621-0.05-1.805-0.464-1.843-1.677
																	c-0.036-1.144,0.941-1.66,1.615-1.815l0.516-1.513c0.063-0.184,0.262-0.281,0.446-0.219
																	c0.183,0.063,0.282,0.262,0.219,0.446l-0.583,1.708c-0.044,0.127-0.155,0.218-0.288,0.235
																	c-0.05,0.007-1.253,0.18-1.223,1.136c0.028,0.887,1.15,0.995,1.198,0.999c0.193,0.017,0.336,0.186,0.32,0.379
																	C558.689,168.79,558.525,168.932,558.335,168.921z"/>
															</g>
														</g>
													</g>
												</g>
											</g>
										</g>
									</g>
									<g>
										<g>
											<path d="M569.712,151.306c0,0-2.626,7.616,0.661,9.481c3.287,1.865-1.19,5.299,1.121,6.874
												c2.311,1.576,5.52-4.191,10.476-1.817c0,0,5.713-5.426,2.94-15.598C584.909,150.247,576.327,154.823,569.712,151.306z"/>
										</g>
									</g>
									<g>
										<path d="M584.909,150.247c0,0-7.426,5.063-15.503,2.077c-8.076-2.985-13.299,6.219-20.18,4.98
											c-6.881-1.238,0.212-12.35,11.659-13.46C572.333,142.735,582.397,142.884,584.909,150.247z"/>
									</g>
									<g>
										<g>
											<g>
												<g>
													<g>
														<g>
															<g>
																<path style="fill:#963429;" d="M556.509,176.919c0.946,0.441,1.992,0.564,2.869-0.089
																	c0.445-0.331-0.09-1.004-0.534-0.674c-0.627,0.466-1.359,0.27-2.013-0.035
																	C556.329,175.888,556.01,176.686,556.509,176.919L556.509,176.919z"/>
															</g>
														</g>
													</g>
												</g>
											</g>
										</g>
									</g>
									<g>
										<g>
											<g>
												<path style="fill:#963429;" d="M568.523,168.605c-0.083,0.714-1.261,1.164-2.631,1.005
													c-1.37-0.159-2.413-0.867-2.33-1.581c0.083-0.714,1.261-1.163,2.631-1.004
													C567.562,167.183,568.605,167.891,568.523,168.605z"/>
											</g>
										</g>
									</g>
									<g>
										<g>
											<g>
												<g>
													<g>
														<g>
															<path style="fill:#963429;" d="M554.245,167.688c-0.083,0.716-1.261,1.165-2.629,1.006
																c-0.645-0.075-1.218-0.271-1.633-0.532c0.087-0.603,0.187-1.224,0.302-1.865c0.003-0.027,0.01-0.054,0.012-0.077
																c0.45-0.133,1.017-0.18,1.619-0.11C553.284,166.269,554.328,166.975,554.245,167.688z"/>
														</g>
													</g>
												</g>
											</g>
										</g>
									</g>
									<g>
										<g>
											<g>
												<g>
													<g>
														<g>
															<g>
																<path d="M563.116,160.696c1.012-0.258,2.284,0.058,2.579,1.194c0.275,1.06,1.979,0.811,1.7-0.263
																	c-0.52-2.001-2.53-3.143-4.542-2.63C561.792,159.267,562.041,160.97,563.116,160.696L563.116,160.696z"/>
															</g>
														</g>
													</g>
												</g>
											</g>
										</g>
									</g>
									<g>
										<g>
											<g>
												<g>
													<g>
														<g>
															<g>
																<path d="M553.129,160.812c0.75-0.734,1.709-1.809,2.866-1.379c1.037,0.386,1.683-1.208,0.645-1.594
																	c-1.842-0.685-3.312,0.385-4.579,1.625C551.278,160.232,552.338,161.587,553.129,160.812L553.129,160.812z"/>
															</g>
														</g>
													</g>
												</g>
											</g>
										</g>
									</g>
									<g>
										<g>
											<g>
												<g>
													<g>
														<g>
															<g>
																<g>
																	<path style="fill:#CB6A53;" d="M571.148,171.115c-0.386-1.797,0.153-3.663,1.33-5.076
																		c1.523-1.83,4.268-4.601,6.529-4.022c3.323,0.852,3.383,3.9,2.703,6.92c-0.68,3.02-3.145,6.796-7.286,5.671
																		C572.353,174.046,571.464,172.586,571.148,171.115z"/>
																</g>
															</g>
														</g>
													</g>
												</g>
											</g>
										</g>
										<circle style="fill:#F8F7E9;" cx="576.309" cy="174.646" r="1.422"/>
										<g>
											<g>
												<g>
													<g>
														<g>
															<g>
																<g>
																	<g>
																		<path d="M575.665,171.043c-0.05-1.268-0.014-2.587,0.562-3.749c0.514-1.038,1.857-2.488,3.194-1.912
																			c0.448,0.193,0.827-0.472,0.375-0.667c-1.289-0.555-2.624,0.113-3.505,1.112
																			c-1.271,1.442-1.464,3.393-1.391,5.234C574.92,171.554,575.685,171.537,575.665,171.043L575.665,171.043z"/>
																	</g>
																</g>
															</g>
														</g>
													</g>
												</g>
											</g>
										</g>
									</g>
								</g>
								<g>
									<path d="M593.751,215.011c-1.438,11.225-0.268,22.509,1.253,33.66c1.353,9.922,3.299,19.981,2.922,30.038
										c-0.185,4.954-1.075,9.822-2.245,14.63c-0.144,0.59,0.767,0.842,0.91,0.251c2.042-8.395,2.709-16.647,1.907-25.256
										c-1.044-11.212-3.249-22.285-4.11-33.519c-0.506-6.6-0.536-13.229,0.306-19.803
										C594.772,214.41,593.827,214.416,593.751,215.011L593.751,215.011z"/>
								</g>
							</g>
						</g>
					</g>
				</g>
				<g>
					<path d="M577.938,197.117c-4.844,9.078-15.948,12.818-25.298,8.436c-0.547-0.256-1.027,0.557-0.477,0.815
						c9.796,4.592,21.488,0.786,26.589-8.774C579.039,197.057,578.224,196.58,577.938,197.117L577.938,197.117z"/>
				</g>
				<g>
					<path d="M585.052,262.862c-10.98,10.401-26.385,15.494-41.401,13.74c-0.602-0.07-0.597,0.874,0,0.944
						c15.256,1.782,30.922-3.458,42.069-14.017C586.162,263.111,585.493,262.444,585.052,262.862L585.052,262.862z"/>
				</g>
			</g>
			<g>
				<g>
					<g>
						<g>
							<path style="fill:#CB6A53;" d="M608.929,294.859c0,0-2.314,3.208-2.525,6.173c-0.211,2.965,0.367,8.695,1.649,9.1
								c1.283,0.406,1.229-5.214,3.125-5.774c1.896-0.56,5.259,4.932,5.639,6.38s0.236,8.667,1.988,9.444
								c1.752,0.777,1.747-4.421,1.747-4.421s2.749-5.579,2.303-9.503c-0.446-3.924-6.386-13.381-6.386-13.381
								C613.833,291.073,611.315,291.633,608.929,294.859z"/>
						</g>
					</g>
					<g>
						<g>
							<g>
								<path style="fill:#963429;" d="M620.861,315.509c0.398-3.177-0.062-6.311-1.375-9.232c-0.105-0.233-0.487-0.109-0.381,0.127
									c1.282,2.853,1.752,5.918,1.363,9.023C620.436,315.681,620.829,315.766,620.861,315.509L620.861,315.509z"/>
							</g>
						</g>
					</g>
					<g>
						<g>
							<g>
								<path style="fill:#963429;" d="M620.957,307.438c0.597,1.511,0.835,3.071,0.722,4.69c-0.018,0.257,0.383,0.23,0.401-0.025
									c0.116-1.65-0.134-3.255-0.742-4.792C621.244,307.072,620.862,307.197,620.957,307.438L620.957,307.438z"/>
							</g>
						</g>
					</g>
				</g>
				<path d="M614.408,231.985c0.259,2.234-4.965,4.677-11.669,5.455c-6.704,0.779-12.349-0.401-12.608-2.635
					c-0.26-2.234,4.965-4.677,11.669-5.455C608.504,228.571,614.149,229.751,614.408,231.985z"/>
				<path style="fill:#CB6A53;" d="M592.473,229.585c0,0,7.063,21.539,9.303,31.568c2.79,12.493,8.357,36.062,8.357,36.062
					l6.897-2.749c0,0-0.938-27.53-2.396-35.36l-6.03-30.862L592.473,229.585z"/>
				<g>
					<path style="fill:#963429;" d="M602.084,258.787c1.979-0.629,3.991-1.008,6.065-1.131c0.604-0.036,0.608-0.98,0-0.944
						c-2.157,0.128-4.256,0.51-6.316,1.165C601.256,258.06,601.503,258.972,602.084,258.787L602.084,258.787z"/>
				</g>
			</g>
			<path style="fill:#C01C27;" d="M591.313,194.725c0,0,10.744,0.529,15.048,13.189c4.305,12.66,8.047,24.07,8.047,24.07
				c-3.928-5.471-25.341-1.835-24.668,3.706c0,0-3.547-16.9-2.466-27.776C588.324,197.355,591.313,194.725,591.313,194.725z"/>
			<g>
				<path style="fill:#EEDDD2;" d="M588.277,227.917c3.528-2.156,7.487-3.508,11.584-4.042c2.025-0.264,4.075-0.329,6.112-0.19
					c1.982,0.136,4.348,0.322,5.802,1.846c0.332,0.348,0.86-0.18,0.528-0.528c-1.221-1.28-2.964-1.686-4.662-1.903
					c-2.384-0.305-4.809-0.306-7.197-0.043c-4.433,0.488-8.734,1.887-12.544,4.216C587.491,227.523,587.866,228.169,588.277,227.917
					L588.277,227.917z"/>
			</g>
			<g>
				<path d="M585.046,209.379c0.036,8.514,1.49,16.956,4.31,24.99c0.158,0.45,0.88,0.257,0.72-0.198
					c-2.799-7.974-4.248-16.34-4.284-24.791C585.79,208.898,585.044,208.898,585.046,209.379L585.046,209.379z"/>
			</g>
		</g>
	</g>
	<g>
		<path style="fill:#584CDC;" d="M150.439,413.473l-2.751,9.212l-0.196,0.654l-2.329,7.801l-0.222,0.742l-1.613,5.404l-0.209,0.696
			l-3.696,12.375c0,0.627-1.93,1.061-4.594,1.299c-0.214,0.02-0.434,0.037-0.656,0.055c-1.279,0.095-2.694,0.147-4.127,0.158
			c-0.229,0.002-0.462,0.004-0.693,0.004c-4.99-0.004-9.962-0.511-9.962-1.517l-1.849-6.187l-0.269-0.9l-1.827-6.115l-0.251-0.836
			v-0.002l-2.219-7.424l-0.189-0.634l-2.496-8.355l-0.189-0.638l-1.73-5.789H150.439z"/>
		<g>
			<path style="fill:#3C32A1;" d="M147.688,422.685l-0.196,0.654c-3.561-2.316-6.295-5.791-7.671-9.866h0.698
				C141.848,417.255,144.388,420.49,147.688,422.685z"/>
		</g>
		<g>
			<path style="fill:#3C32A1;" d="M127.831,418.873c-2.705,5.686-9.185,7.851-14.644,9.936c-0.07,0.026-0.141,0.053-0.211,0.081
				l-0.189-0.634c2.223-0.85,4.475-1.646,6.575-2.663c2.809-1.36,5.569-3.178,7.253-5.873c1.167-1.864,1.816-4.087,1.6-6.247h0.656
				C129.04,415.3,128.641,417.169,127.831,418.873z"/>
		</g>
		<g>
			<path style="fill:#3C32A1;" d="M120.614,413.473c-1.028,1.789-2.833,3.359-4.259,4.286c-1.834,1.191-3.918,1.924-6.064,2.142
				l-0.189-0.638c1.889-0.176,3.731-0.775,5.384-1.743c1.288-0.753,2.446-1.721,3.399-2.87c0.295-0.359,0.601-0.753,0.878-1.175
				H120.614z"/>
		</g>
		<g>
			<path style="fill:#3C32A1;" d="M145.163,431.139l-0.222,0.742c-1.239-1.252-2.672-2.315-4.398-3.134
				c-3.403-1.616-7.354-2.135-11.063-1.49c-5.908,1.03-10.865,4.911-14.034,9.896l-0.251-0.836v-0.002
				c1.27-1.911,2.8-3.643,4.569-5.124c5.723-4.79,13.61-6.273,20.536-3.273C142.158,428.72,143.77,429.81,145.163,431.139z"/>
		</g>
		<g>
			<path style="fill:#3C32A1;" d="M143.327,437.285l-0.209,0.696c-1.147,0.121-2.3,0.535-3.277,1.109
				c-2.047,1.202-3.65,3.09-4.585,5.267c-1.013,2.36-1.105,4.935-0.427,7.297c-0.214,0.02-0.434,0.037-0.656,0.055
				c-0.751-2.729-0.533-5.71,0.839-8.384c1.277-2.49,3.454-4.581,6.088-5.569C141.819,437.487,142.577,437.325,143.327,437.285z"/>
		</g>
		<g>
			<path style="fill:#3C32A1;" d="M130.046,451.867c-0.229,0.002-0.462,0.004-0.693,0.004c0.652-1.992,1.114-4.048,0.936-6.143
				c-0.196-2.333-1.409-4.836-3.524-5.994c-2.577-1.411-5.549-0.222-7.427,1.783c-0.74,0.79-1.318,1.69-1.796,2.65l-0.269-0.9
				c0.583-1.048,1.297-2.01,2.21-2.813c1.926-1.693,4.629-2.611,7.088-1.55c2.316,0.999,3.793,3.425,4.246,5.831
				C131.269,447.137,130.785,449.55,130.046,451.867z"/>
		</g>
		<g>
			<path style="fill:#518E4B;" d="M82.14,348.163c-6.151,0.765-11.021,5.568-11.819,11.714c-0.747,5.758-0.039,13.43,5.916,20.843
				c11.736,14.609,34.108,16.611,42.464,7.216C126.283,379.412,110.303,344.66,82.14,348.163z"/>
			<g>
				<path d="M74.52,352.974c14.866,10.956,29.164,22.744,43.264,34.662c3.499,2.957,6.979,5.937,10.417,8.965
					c0.318,0.28,0.787-0.185,0.467-0.467c-13.921-12.261-28.321-24.026-42.94-35.443c-3.592-2.805-7.206-5.583-10.875-8.287
					C74.511,352.151,74.181,352.724,74.52,352.974L74.52,352.974z"/>
			</g>
			<g>
				<path d="M71.511,367.777c7.073-0.196,14.146-0.392,21.219-0.588c0.424-0.012,0.426-0.672,0-0.66
					c-7.073,0.196-14.146,0.392-21.219,0.588C71.087,367.128,71.085,367.788,71.511,367.777L71.511,367.777z"/>
			</g>
			<g>
				<path d="M93.12,349.301c1.843,6.895,3.244,13.897,4.195,20.971c0.056,0.419,0.693,0.241,0.637-0.176
					c-0.951-7.074-2.352-14.076-4.195-20.971C93.647,348.715,93.01,348.889,93.12,349.301L93.12,349.301z"/>
			</g>
			<g>
				<path d="M77.79,382.064c9.674-0.533,19.296-1.785,28.785-3.745c0.416-0.086,0.24-0.723-0.175-0.637
					c-9.432,1.948-18.993,3.191-28.609,3.721C77.367,381.427,77.364,382.088,77.79,382.064L77.79,382.064z"/>
			</g>
			<g>
				<path d="M112.43,362.681c0.425,6.663,0.338,13.343-0.262,19.993c-0.038,0.423,0.622,0.421,0.66,0
					c0.599-6.65,0.687-13.33,0.262-19.993C113.063,362.259,112.403,362.256,112.43,362.681L112.43,362.681z"/>
			</g>
		</g>
		<g>
			<path style="fill:#518E4B;" d="M175.669,357.755c6.151,0.765,11.021,5.568,11.819,11.714c0.747,5.758,0.039,13.43-5.916,20.843
				c-11.736,14.609-34.108,16.611-42.464,7.216C131.525,389.005,147.505,354.253,175.669,357.755z"/>
			<g>
				<path d="M182.955,361.996c-14.871,10.96-29.174,22.746-43.28,34.666c-3.539,2.99-7.058,6.003-10.535,9.065
					c-0.32,0.281,0.149,0.747,0.467,0.467c13.806-12.16,28.085-23.827,42.576-35.158c3.667-2.868,7.358-5.707,11.106-8.469
					C183.627,362.317,183.298,361.743,182.955,361.996L182.955,361.996z"/>
			</g>
			<g>
				<path d="M186.297,376.709c-7.073-0.196-14.146-0.392-21.219-0.588c-0.425-0.012-0.425,0.649,0,0.66
					c7.073,0.196,14.146,0.392,21.219,0.588C186.722,377.381,186.722,376.721,186.297,376.709L186.297,376.709z"/>
			</g>
			<g>
				<path d="M164.051,358.718c-1.843,6.895-3.244,13.897-4.195,20.971c-0.056,0.415,0.58,0.595,0.637,0.176
					c0.951-7.074,2.352-14.076,4.195-20.971C164.798,358.482,164.161,358.307,164.051,358.718L164.051,358.718z"/>
			</g>
			<g>
				<path d="M180.019,390.997c-9.616-0.53-19.177-1.773-28.609-3.721c-0.415-0.086-0.592,0.551-0.176,0.637
					c9.489,1.96,19.11,3.212,28.785,3.745C180.443,391.68,180.442,391.02,180.019,390.997L180.019,390.997z"/>
			</g>
			<g>
				<path d="M144.718,372.274c-0.425,6.663-0.337,13.343,0.262,19.993c0.038,0.42,0.699,0.424,0.66,0
					c-0.599-6.65-0.687-13.33-0.262-19.993C145.406,371.849,144.745,371.851,144.718,372.274L144.718,372.274z"/>
			</g>
		</g>
		<g>
			<path style="fill:#518E4B;" d="M119.606,313.115c4.428-4.336,11.219-5.156,16.526-1.953c4.971,3.001,10.533,8.332,12.625,17.608
				c4.123,18.28-8.241,37.032-20.795,37.72C116.57,367.115,99.328,332.971,119.606,313.115z"/>
			<g>
				<path d="M127.458,310.102c-0.471,12.716-0.165,25.483,0.003,38.202c0.212,16.082,0.531,32.165,0.988,48.242
					c0.171,6.017,0.341,12.037,0.641,18.049c0.021,0.423,0.682,0.426,0.66,0c-0.636-12.719-0.865-25.465-1.138-38.195
					c-0.345-16.079-0.619-32.162-0.669-48.244c-0.019-6.016-0.049-12.041,0.174-18.055
					C128.134,309.677,127.474,309.678,127.458,310.102L127.458,310.102z"/>
			</g>
			<g>
				<path d="M141.08,316.573c-4.557,5.412-9.115,10.825-13.672,16.237c-0.272,0.323,0.193,0.793,0.467,0.467
					c4.557-5.412,9.115-10.825,13.672-16.237C141.819,316.717,141.354,316.247,141.08,316.573L141.08,316.573z"/>
			</g>
			<g>
				<path d="M113.107,322.777c4.264,5.759,8.886,11.239,13.848,16.408c0.295,0.307,0.761-0.16,0.467-0.467
					c-4.923-5.128-9.515-10.561-13.745-16.274C113.427,322.106,112.854,322.435,113.107,322.777L113.107,322.777z"/>
			</g>
			<g>
				<path d="M148.35,330.383c-6.421,7.216-13.37,13.945-20.79,20.13c-0.327,0.272,0.143,0.737,0.467,0.467
					c7.42-6.185,14.369-12.913,20.79-20.13C149.099,330.533,148.633,330.064,148.35,330.383L148.35,330.383z"/>
			</g>
			<g>
				<path d="M111.666,346.349c4.969,4.501,10.274,8.61,15.874,12.296c0.356,0.234,0.687-0.337,0.333-0.57
					c-5.553-3.656-10.812-7.73-15.74-12.193C111.819,345.597,111.35,346.063,111.666,346.349L111.666,346.349z"/>
			</g>
		</g>
		<path d="M150.47,413.371c0,1.31-9.424,2.372-21.049,2.372s-21.049-1.062-21.049-2.372c0-1.31,9.424-2.372,21.049-2.372
			S150.47,412.061,150.47,413.371z"/>
	</g>
</g>
</svg>
